<svg width="80" height="76" viewBox="0 0 80 76" fill="none" xmlns="http://www.w3.org/2000/svg">
<path fill-rule="evenodd" clip-rule="evenodd" d="M25 67.9999C43.948 73.3039 59 64.4999 66.5 53.9999C75.976 40.7319 84.257 11.8149 53.5 1.99994C30 -5.50006 2.93001 13.4669 1.00001 35.9999C-0.499987 53.4999 12.5 64.4999 25 67.9999Z" fill="#EAEEF2"/>
<path d="M45.5 8.5H12.5C10.2909 8.5 8.5 10.2909 8.5 12.5V60.5C8.5 62.7091 10.2909 64.5 12.5 64.5H45.5C47.7091 64.5 49.5 62.7091 49.5 60.5V12.5C49.5 10.2909 47.7091 8.5 45.5 8.5Z" fill="white" stroke="#BBC4D3"/>
<path fill-rule="evenodd" clip-rule="evenodd" d="M27.5 17.5H22.5V23.5H16.5V28.5H22.5V34.5H27.5V28.5H33.5V23.5H27.5V17.5Z" fill="#5C9FFF" stroke="#164798" stroke-linecap="round"/>
<path fill-rule="evenodd" clip-rule="evenodd" d="M48.52 64.72L44.278 60.478L34.378 70.378C34.0991 70.6563 33.878 70.9869 33.7273 71.3509C33.5767 71.7149 33.4994 72.1051 33.5 72.499C33.5 73.267 33.793 74.035 34.378 74.62C34.6562 74.8994 34.9869 75.1209 35.3511 75.272C35.7153 75.423 36.1058 75.5005 36.5 75.5C36.8939 75.5002 37.284 75.4226 37.6478 75.2716C38.0116 75.1205 38.342 74.8991 38.62 74.62L48.52 64.72Z" fill="#EAEEF2" stroke="#BBC4D3"/>
<path fill-rule="evenodd" clip-rule="evenodd" d="M16 43H44V44H16V43ZM16 49H41V50H16V49ZM16 55H29V56H16V55Z" fill="#BBC4D3"/>
<path d="M58 72.5C69.8741 72.5 79.5 62.8741 79.5 51C79.5 39.1259 69.8741 29.5 58 29.5C46.1259 29.5 36.5 39.1259 36.5 51C36.5 62.8741 46.1259 72.5 58 72.5Z" fill="#EAEEF2" stroke="#BBC4D3"/>
<path d="M58 68.5C67.665 68.5 75.5 60.665 75.5 51C75.5 41.335 67.665 33.5 58 33.5C48.335 33.5 40.5 41.335 40.5 51C40.5 60.665 48.335 68.5 58 68.5Z" fill="white" stroke="#BBC4D3"/>
<path fill-rule="evenodd" clip-rule="evenodd" d="M47 51.579L55.8 60L69 47.368L65.48 44L55.8 53.263L50.52 48.211L47 51.579Z" fill="#5C9FFF" stroke="#164798"/>
</svg>
