<svg width="80" height="78" viewBox="0 0 80 78" fill="none" xmlns="http://www.w3.org/2000/svg">
<path fill-rule="evenodd" clip-rule="evenodd" d="M41.6 0.656983C43.205 2.83698 41.199 4.87298 41.199 7.19898L41.065 22.606C40.262 22.752 39.46 23.042 38.658 23.333V23.043L38.123 6.90798C37.855 4.58198 37.053 1.38398 39.46 0.0759833C40.129 -0.0690167 41.065 -0.0690167 41.6 0.656983ZM11.111 18.89C11.528 17.321 12.916 15.883 13.75 14.315C15.417 12.615 17.222 11.047 19.444 10.393L20 9.99998C18.195 13.268 14.445 16.666 11.111 18.889V18.89ZM66.794 13.749C68.251 15.278 69.271 17.083 70 18.889L65.337 15C63.734 13.472 62.131 11.806 61.111 9.99998C63.297 10.695 65.046 12.084 66.794 13.75V13.749ZM45.556 10.46C45.432 10.785 45.186 10.948 44.938 11.111C44.444 11.111 43.828 10.785 43.333 10.785C43.827 10.623 44.321 10.135 44.815 10.135C45.062 9.80998 45.432 10.135 45.555 10.46" fill="#7B8BA5"/>
<path fill-rule="evenodd" clip-rule="evenodd" d="M51.548 14.612C52.641 16.775 52.368 19.802 51.002 21.82C48.543 25.712 43.899 25.567 40.075 26.865C38.573 27.153 36.934 28.45 36.524 30.18C36.387 31.621 37.344 32.63 38.3 33.351L38.846 33.639L38.982 36.667C36.661 36.234 33.929 34.505 33.382 31.91C33.246 30.468 33.382 29.027 33.929 27.874C36.661 22.396 43.08 23.982 47.314 21.099C47.724 20.522 48.27 19.946 48.544 19.369C47.997 18.937 47.314 18.504 46.494 18.36C45.674 17.928 44.719 17.783 43.763 17.495V16.63C45.539 17.063 47.177 17.495 48.68 18.504C48.816 18.0336 48.816 17.5344 48.68 17.064C48.543 15.044 46.631 13.604 44.855 13.171C44.582 13.027 44.172 12.883 43.763 13.027V10C46.904 10.144 49.909 11.585 51.548 14.612ZM75.366 26.296C75.226 26.741 75.226 27.333 75.086 27.778C72.84 24.074 68.49 21.704 66.666 17.704C68.631 18.741 71.156 20.074 72.56 22.444C73.261 23.482 73.822 24.519 74.384 25.556C74.384 24.074 73.822 22.741 73.542 21.408C72.7 19.185 72.56 16.667 71.858 14.444C74.805 17.555 76.068 21.704 75.366 26.296ZM54.95 13.84L55.557 14.445C54.748 14.445 53.738 14.243 53.334 13.435C53.94 13.435 54.748 13.031 54.95 13.84ZM7.665 23.825C8.073 23.825 8.073 23.398 8.345 23.114C8.889 21.692 9.977 20.556 11.202 19.561L15.556 16.292C14.739 18.85 12.29 21.267 10.113 22.972C8.99635 24.1394 7.95143 25.3733 6.984 26.667C6.44 22.403 6.304 17.713 9.025 14.444C9.433 17.855 8.345 20.698 7.665 23.824" fill="#7B8BA5"/>
<path fill-rule="evenodd" clip-rule="evenodd" d="M78.556 30.1621L76.57 36.5251V36.6671C75.959 35.3941 75.653 34.1211 74.737 32.9901L71.527 28.7481C70.765 27.3331 70 25.9191 70 24.3641L73.514 28.3231C74.889 30.0201 75.348 32.1411 76.417 33.9801C76.875 31.1511 76.417 27.8991 76.875 25.0701C77.028 23.6561 77.487 22.5251 77.334 21.1111C78.709 23.7981 79.32 27.1911 78.556 30.1611V30.1621ZM3.776 31.2731C3.928 32.5461 3.473 33.9601 4.08 35.0911C4.232 34.5251 4.232 33.9601 4.535 33.3941C5.446 30.4241 7.419 27.7371 10 25.1921C9.545 30.0001 4.687 33.1121 4.08 37.7781C2.258 33.1101 -0.778001 27.1721 2.713 22.2221C2.865 25.3331 3.321 28.3031 3.776 31.2721V31.2731ZM53.178 27.5001L52.822 27.7781C52.112 27.5001 52.466 26.9451 52.466 26.6671C52.822 26.9451 53.178 26.9451 53.178 27.5001ZM53.138 28.5721C53.138 28.7301 52.965 28.7301 52.965 28.8891H52.268C52.093 28.4131 52.442 27.9371 52.965 27.7781C52.965 28.0951 53.662 28.4131 53.139 28.5721H53.138ZM40.98 43.9921C40.326 44.1421 39.803 44.4441 39.15 44.4441L38.888 29.6441C39.541 29.1911 40.457 29.1911 41.11 28.8891L40.98 40.0651V43.9911V43.9921ZM53.332 30.6511C53.332 30.9771 52.859 31.3011 52.622 30.9771C52.622 30.6511 51.91 30.3261 52.384 30.0001C52.859 30.0001 53.096 30.3261 53.332 30.6511Z" fill="#7B8BA5"/>
<path fill-rule="evenodd" clip-rule="evenodd" d="M0.304005 31.1111C1.14701 35.1391 4.10101 38.3331 5.08601 42.3611C5.36701 43.0561 5.50801 43.8891 5.93001 44.5831C6.21101 43.4731 6.07001 42.2231 6.21101 40.9731C6.49201 38.1951 7.05501 35.4171 8.74301 33.0551C9.58701 38.0551 6.49301 41.8051 6.63301 46.6671L2.41301 41.2501C0.443005 38.3331 -0.539995 34.7221 0.303005 31.1111H0.304005ZM37.778 31.4811V33.3331C37.222 32.9631 36.667 32.4691 36.667 31.8521C36.667 31.6051 36.667 31.3581 36.944 31.1121L37.778 31.4821V31.4811ZM78.933 38.5021L77.513 41.1121L74.247 45.7491L73.111 47.7781C73.395 42.2711 70.413 37.6331 71.265 31.9811C73.111 35.8941 74.389 40.0961 73.963 44.7341C74.531 44.1541 74.531 43.5751 74.815 42.9951L76.803 38.3581C77.797 36.0381 78.791 33.5751 79.643 31.1111C80.495 33.5751 79.643 36.1831 78.933 38.5021ZM46.362 38.1261C47.542 39.0011 47.984 40.4601 47.689 42.0651C47.394 43.2321 46.657 44.5451 45.477 45.1291C43.854 45.8591 42.085 46.1501 40.315 46.7341C39.725 47.1721 38.693 47.6091 38.693 48.4851V51.1111C37.66 50.8191 36.923 49.7981 36.775 48.7771C36.48 47.6091 36.775 46.2971 37.807 45.5671C40.02 43.9621 42.97 44.2531 44.739 42.0651C45.034 41.6271 44.887 40.8981 44.592 40.4601C44.15 39.8761 43.56 39.7301 42.97 39.2931V36.6671C44.297 36.8131 45.33 37.3971 46.362 38.1261ZM27.737 40.0001C27.202 40.0001 26.667 39.8901 26.667 39.6671C26.934 39.4451 26.934 39.1111 27.202 38.8891C28.272 39.0001 27.469 39.6671 27.737 40.0001ZM38.889 40.4771C38.564 40.4771 38.889 41.3401 38.239 41.0521C37.913 40.7651 37.587 40.4771 37.913 40.1891C38.238 39.9011 38.889 39.9011 38.889 40.4771ZM27.755 41.0691C27.045 41.2221 26.689 40.9171 26.689 40.7641C26.689 40.4581 27.045 40.3051 27.399 40.0001C28.111 40.3051 27.399 40.7641 27.755 41.0701" fill="#7B8BA5"/>
<path fill-rule="evenodd" clip-rule="evenodd" d="M42.066 41.1111C42.222 41.3581 42.222 41.6051 42.222 41.8521C41.91 42.0991 41.597 42.2221 41.129 42.2221C40.973 41.8521 41.91 41.6051 41.597 41.1121C41.754 41.2351 41.91 41.1121 42.066 41.1121V41.1111ZM70.093 54.1441C71.636 52.9801 72.099 51.3811 73.179 50.0731L76.574 46.2931C77.346 45.2751 78.118 44.5481 78.889 43.5311C78.272 48.9101 73.796 53.1251 69.167 56.4691L67.777 57.7781C69.167 54.5801 69.321 50.3631 68.55 46.8751C68.395 45.2751 69.012 43.6761 69.475 42.2221C70.247 45.8561 71.327 50.3631 70.093 54.1441ZM5.48 49.4601C6.517 51.0001 7.554 52.5401 8.74 54.0801C8.591 50.2301 7.999 45.7641 9.332 42.2211C10.073 43.2991 10.073 44.6851 10.369 45.9171L10.517 47.7661V55.1591C10.517 56.0831 10.962 56.8531 11.11 57.7771L6.666 54.2341C3.11 50.8471 0.592 46.9971 0 42.2221L5.481 49.4611L5.48 49.4601ZM38.428 44.2331C38.428 44.3831 38.104 44.5331 37.778 44.3831C38.104 44.0831 38.104 43.6331 38.754 43.3331C39.08 43.6331 38.754 43.9331 38.428 44.2331ZM37.578 44.2231L37.223 44.4441C36.867 44.2231 37.223 43.5561 36.867 43.3341C37.577 43.3341 37.223 44.0001 37.577 44.2231H37.578ZM15.431 43.5131C15.732 43.8231 15.431 44.1331 15.129 44.4441C14.829 44.1341 14.225 43.9781 14.527 43.5131C14.527 43.2031 15.431 43.3571 15.431 43.5131ZM40.926 63.7931C40.556 64.0801 40.74 64.2231 40.37 64.3661C39.815 64.6531 39.444 64.0801 39.259 63.7931L39.074 54.3351L38.889 49.6051C39.444 49.1751 40.37 49.1751 41.111 48.8891V53.4751L40.926 63.7931Z" fill="#7B8BA5"/>
<path fill-rule="evenodd" clip-rule="evenodd" d="M65.616 61.743C65.475 62.201 65.192 62.505 65.192 62.811C69.677 60.0063 73.8906 56.7894 77.778 53.202C75.657 60.98 67.738 62.505 62.222 65.556C65.475 60.98 64.768 54.576 68.162 50C68.02 54.27 67.454 58.388 65.616 61.743ZM13.926 53.39C15.259 57.075 15.556 61.202 17.778 64.444C13.481 62.676 8.741 61.496 5.185 57.811C3.852 56.338 2.815 54.864 2.222 53.095C2.37 52.948 2.519 53.095 2.519 53.243C5.778 56.19 9.481 57.517 12.741 60.317C13.63 60.907 14.222 61.791 15.111 62.087C14.666 60.465 13.63 58.991 13.037 57.369C12.297 55.159 11.703 52.653 12 50C12.889 50.884 13.333 52.21 13.926 53.39ZM37.778 52.151C37.704 52.1974 37.6184 52.222 37.531 52.222C37.4436 52.222 37.358 52.1974 37.284 52.151L37.16 51.962H37.037C36.79 51.678 36.667 51.395 36.667 51.112C36.914 51.489 37.531 51.773 37.777 52.152" fill="#7B8BA5"/>
<path fill-rule="evenodd" clip-rule="evenodd" d="M35.932 7.05291C29.4 7.65191 23.862 10.6459 19.034 15.7369L22.3 19.0299C25.992 15.1369 30.394 13.1899 35.08 11.6929L35.932 11.3929V14.3879C34.086 15.4359 32.808 17.8319 30.962 18.5799C29.9298 19.3632 28.8378 20.0644 27.696 20.6769C27.27 20.3769 26.844 20.8269 26.56 21.1259L25.992 22.4729C25.85 22.1729 25.992 21.8729 26.134 21.5749C25.85 21.5749 25.424 21.7249 25.14 21.7249C25.85 21.2749 26.986 20.9749 26.844 19.9279C26.986 18.2809 27.98 16.9329 28.548 15.4359C28.548 15.2859 28.69 15.1359 28.69 15.1359C26.56 16.1849 24.714 17.8319 22.868 19.6289C23.294 20.2279 23.862 20.6769 24.288 21.2759L24.004 21.5749L22.584 20.0779C18.608 24.4189 16.762 29.9579 16.62 35.9479H21.022C21.022 31.0079 22.726 26.8149 25.708 23.2219L25.566 23.0719L25.708 22.7719L25.992 22.9219C28.832 19.7779 32.24 18.1319 36.074 17.3819V18.2809C32.382 18.8799 29.258 20.5269 26.418 23.5209L30.252 27.5639C30.962 26.6649 31.814 26.2159 32.666 25.6169C32.95 25.9169 32.666 26.3659 32.382 26.5149C30.11 28.0129 28.69 30.4079 27.98 32.9529C28.264 33.1029 28.406 32.2049 28.974 32.3549C29.258 32.3549 28.974 31.9049 29.4 32.0549C29.542 32.3549 29.542 33.1029 29.542 33.5519C29.826 35.4989 31.246 37.5949 33.092 38.4929L34.086 38.7929C33.944 38.9429 33.376 39.0919 33.376 39.5409C33.376 39.6909 33.234 39.8409 33.234 39.9909C33.518 40.2899 32.95 40.7389 33.234 41.0379C33.66 40.7379 34.37 40.2899 34.37 39.6909C34.796 39.0909 35.364 38.9429 35.932 38.7929C36.074 38.9429 36.216 38.9429 36.358 39.2419C36.358 39.3919 36.216 39.3919 36.074 39.5419L34.938 40.5889L34.654 40.4389L30.678 44.6309C31.672 45.8289 32.95 46.4279 34.228 47.0269C34.086 47.1769 34.086 47.6259 33.944 47.4769C32.666 46.8769 31.388 46.1289 30.394 44.9309L27.128 48.3749C27.554 48.6739 27.554 49.7219 28.264 49.8719C28.69 50.1719 28.69 50.4709 28.69 50.9199C31.104 52.7159 33.802 53.9139 36.642 54.2139V54.8129C33.66 54.6629 30.82 53.4649 28.264 51.6679C26.986 51.2189 26.276 52.5679 24.998 52.4179C24.572 52.2679 24.004 52.1179 23.436 52.2679L22.868 52.8659C26.702 57.0589 31.388 59.1549 36.642 59.6039L36.5 60.3519C31.388 59.9029 26.702 57.8069 22.868 53.9139L22.3 53.4649L19.176 56.7589C24.146 62.2989 30.252 65.1439 37.21 65.5929C44.878 65.5929 51.552 62.8969 57.09 57.3579C57.09 57.2079 57.233 57.0579 57.233 57.0579L53.967 53.6149C52.263 55.4119 50.133 56.9089 48.003 58.1069C47.009 58.7059 46.298 59.6039 45.163 59.9029L44.736 59.4529C43.316 59.7529 41.896 60.2029 40.476 60.3529L40.334 59.6029C41.328 59.4529 42.464 59.3039 43.458 59.0049C43.458 58.4049 42.606 58.1069 42.18 57.8069C41.754 57.3569 41.328 56.7589 41.612 56.0099C42.18 56.7589 42.606 57.8069 43.458 57.9569C44.452 57.0589 43.884 55.4119 43.884 54.2139C43.6 53.9139 43.174 54.2139 42.89 54.2139C43.174 54.5139 43.174 55.1119 43.316 55.5609C43.458 55.8609 43.316 56.1609 43.458 56.4599C43.032 56.3099 42.748 55.7109 42.464 55.2619C42.18 54.9619 42.038 54.5129 41.612 54.5129L40.619 54.8129V54.0639C40.76 54.0639 40.902 54.0639 41.186 53.9139C40.051 53.9139 40.76 52.7159 40.619 52.1179C41.329 52.4179 42.039 53.0159 42.464 53.6149C42.748 53.4649 43.316 53.4649 43.174 53.1659C42.464 52.2669 41.612 51.5189 40.619 51.0699V47.9259C42.89 47.1759 45.305 46.1289 46.299 43.5839C46.724 41.6369 46.582 39.3919 45.162 38.0439C43.884 36.8459 42.322 36.0979 40.76 35.6479V29.9579C41.044 29.8099 41.328 29.6599 41.612 29.5099C42.038 30.1089 41.044 31.0069 42.038 31.3069C42.606 31.3069 42.606 30.7069 42.748 30.4079C42.748 30.1079 43.032 29.6599 43.316 29.5099C43.884 29.5099 44.026 28.6119 44.736 28.9109L49.99 23.3709C49.707 23.0709 50.133 22.6229 50.133 22.3229L50.701 22.7729C50.842 22.1729 52.263 21.7249 51.411 20.9759L50.984 20.5259C51.552 18.7299 51.411 16.6339 50.558 15.1359C50.558 14.9869 50.701 14.8369 50.842 14.6879C51.411 15.1369 51.978 15.8849 52.831 15.7359C53.257 16.3339 53.967 16.9329 53.825 17.8319C53.967 18.1319 54.25 18.4309 54.676 18.4309L57.516 15.4359C53.114 10.3459 47.576 7.94991 41.47 7.05191V5.70491C51.269 6.60391 61.35 14.9879 64.759 25.0189C69.161 37.1469 65.753 50.9209 56.523 59.6049C51.553 63.9469 46.014 66.4919 39.34 66.6419C31.956 66.9409 25.566 64.5459 20.17 59.7549C11.082 51.3699 7.53201 38.0449 11.792 26.0669C14.206 17.6829 21.874 9.44991 29.826 7.05291C31.814 6.30391 33.802 5.85491 35.932 5.55591V7.05291ZM30.394 15.4369C30.11 15.5869 29.968 15.7369 29.968 16.0369C30.11 16.1859 30.11 16.6349 30.536 16.4849C30.82 16.3349 31.104 16.1859 30.962 15.8859C30.82 15.5869 30.536 15.2869 30.394 15.4369ZM57.942 15.7369L55.102 18.7309L55.812 19.6299C56.522 20.2289 56.522 21.5759 57.659 21.7259C57.942 23.0729 59.221 23.9709 59.931 25.1689C60.357 26.0669 59.221 25.7689 58.936 26.3669C60.2842 29.3752 60.9164 32.6551 60.783 35.9489H65.327C65.185 28.3129 62.771 21.4259 57.942 15.7369ZM18.75 16.0369C13.922 21.7259 11.508 28.4629 11.224 35.9489H15.768C16.052 29.6609 18.04 24.1209 22.016 19.4789C20.88 18.2819 19.886 17.0839 18.75 16.0359V16.0369ZM51.978 22.1749L50.984 23.0729C52.263 24.4199 52.831 26.2169 54.25 27.2649C54.25 28.0139 54.535 28.4629 54.676 29.0619C54.393 29.3609 54.819 29.6609 54.819 29.9599C54.961 29.6599 54.819 29.0619 55.103 28.9119C56.097 29.5109 55.103 30.5589 55.244 31.4569C55.67 32.8049 55.67 34.4519 55.954 35.9489H60.072C60.072 32.8049 59.504 29.8109 58.369 27.1149C58.227 27.1149 58.085 27.2649 57.942 27.2649C57.374 26.6659 57.091 25.7679 56.665 25.0189C56.38 24.8689 55.955 24.8689 55.67 24.8689C55.529 24.8689 55.244 24.4199 55.103 24.5699C54.676 24.1209 53.967 24.4199 53.54 24.1209C53.257 23.2229 52.404 22.9229 51.978 22.1749ZM29.968 27.7149L26.134 23.8219C23.152 27.2649 21.874 31.3079 21.59 35.9489H24.714C24.998 35.4999 25.424 35.3499 25.708 35.0499C25.85 34.1519 26.844 34.3019 27.27 33.4039C27.838 31.4569 28.69 29.5109 29.968 27.8639V27.7139V27.7149ZM50.275 23.8219L46.725 27.7139C47.009 28.1639 47.292 28.9119 47.86 28.7629C47.86 28.9119 47.718 29.0619 47.577 29.0619C48.003 29.8109 48.854 29.9599 49.565 29.9599C49.99 30.1099 49.848 30.5589 49.99 30.8589C50.7 31.3079 49.99 32.0559 50.275 32.6549C50.701 32.5049 50.985 31.7569 51.552 31.9069C52.12 32.2069 51.695 32.9539 51.978 33.4039C52.972 33.5539 53.257 32.5049 53.54 31.9069C53.967 32.8049 53.257 33.7029 52.689 34.3019C52.404 34.4519 52.12 34.4519 51.836 34.6019C51.836 35.1999 51.411 35.7989 50.984 35.9489H55.103C55.103 35.3499 55.103 34.4519 54.961 33.8529C54.819 34.0029 54.535 34.4519 54.251 34.3029C54.108 33.4029 54.108 32.0559 54.393 31.0079C54.25 30.8579 54.25 30.2599 53.967 30.4089C53.825 29.2119 52.404 28.6129 52.404 27.5649H52.972L52.546 26.8159C52.546 26.9659 52.546 27.1159 52.404 27.2659C51.552 26.9659 51.694 26.0669 51.411 25.3189C50.842 25.0189 50.984 24.1209 50.275 23.8219ZM46.156 28.3129H46.014C46.298 28.3129 46.298 28.4629 46.441 28.4629L46.156 28.3129ZM45.305 29.2119L44.452 29.9599C44.878 30.2599 45.305 29.9599 45.872 30.1099C46.298 30.2599 45.73 30.8589 46.156 31.1579C46.156 31.0079 46.298 31.1579 46.298 31.1579C46.441 30.8579 46.298 30.5579 46.156 30.2599C46.441 29.9599 46.866 29.9599 47.15 29.8099C47.292 29.5099 47.009 29.3609 47.009 29.2119C46.582 29.3609 46.014 29.2119 45.73 29.5109C45.588 29.5109 45.305 29.5109 45.305 29.2109V29.2119ZM43.885 29.9599C43.743 29.8099 44.168 29.6599 44.168 29.5099L43.884 29.9599H43.885ZM11.224 36.5479C11.508 44.1829 13.78 50.9209 18.75 56.4609C19.886 55.2629 21.022 54.2149 22.016 53.0169L20.454 51.3699C20.17 51.2199 19.886 51.3699 19.602 51.2199C19.602 50.6219 19.46 50.0229 19.318 49.4239C18.75 48.8239 17.898 48.8239 17.188 48.6749C16.762 48.3749 16.336 47.7769 16.478 47.3279C16.762 46.1299 15.484 46.1299 15.058 45.3809C14.49 45.3809 14.348 44.9319 14.064 44.6319C13.78 44.7819 13.496 45.0819 13.212 44.9319C13.07 44.6319 13.07 44.0339 13.212 43.8839C13.638 42.8359 14.49 43.2849 15.2 43.2849C15.626 42.9859 16.052 42.8359 16.478 42.6859C16.052 40.7399 15.768 38.6439 15.768 36.5479H11.224ZM20.88 36.5479H16.62C16.62 38.7939 16.904 40.7399 17.472 42.6859C18.04 42.8359 18.466 43.1359 18.892 43.4359C18.892 42.9859 18.608 42.6859 18.75 42.3869C19.176 41.9369 19.034 41.3389 19.034 40.7399C19.176 39.6919 20.312 39.2429 21.022 38.6439L20.88 36.5479ZM21.59 36.5479L21.874 38.6439C22.3 38.9439 22.726 39.2429 23.294 39.3929C23.862 39.0929 24.146 38.3449 24.288 37.5959C24.714 35.7989 22.584 36.9969 21.59 36.5479ZM26.276 36.6979C25.708 36.8479 25.85 37.7459 25.14 37.8949C25.14 38.4939 24.856 38.9439 24.43 39.3929C24.288 39.6919 24.146 39.9919 24.43 40.1409C24.998 40.4409 24.856 41.1889 24.856 41.7879C25.708 42.3879 25.424 43.5849 25.14 44.3329C25.992 44.9329 26.134 45.9799 26.418 46.8789C26.134 47.0289 25.992 47.3279 26.134 47.7769C26.134 48.0769 26.418 48.0769 26.702 48.0769C27.696 46.8789 28.974 45.8299 29.968 44.6319C28.122 42.2369 27.128 39.6919 26.986 36.6969C26.702 36.5469 26.56 36.6969 26.276 36.6969V36.6979ZM50.558 36.5479C50.416 37.2959 50.842 38.0449 50.842 38.6439C50.842 38.7939 50.984 39.0929 51.127 39.0929C51.411 39.0929 51.269 38.7929 51.552 38.6429C52.12 38.6429 52.546 39.0929 52.972 39.3929L52.689 39.8419C52.12 39.9919 51.836 40.5899 51.269 40.5899C50.842 41.4889 49.565 41.1899 49.28 42.2369C49.139 42.3869 48.997 42.8369 48.712 42.5369C48.997 43.8839 47.292 43.7339 46.866 44.6319C47.292 43.8839 48.286 44.6319 48.428 43.7339C48.712 43.4349 48.854 43.5849 49.138 43.7339C48.997 44.4839 48.854 45.2309 48.854 45.9799C48.712 46.1299 48.571 46.7289 48.286 46.7289C48.286 46.7289 48.286 46.8789 48.428 46.8789C48.571 46.5789 48.854 46.2789 48.997 46.1299C50.275 46.2799 49.28 48.0759 50.133 48.6749C53.257 45.2309 54.819 41.3389 55.103 36.5479H50.558ZM55.812 36.5479C55.529 41.4879 53.967 45.8299 50.842 49.2739L51.411 50.0229V49.8729C51.4879 49.801 51.5892 49.761 51.6945 49.761C51.7998 49.761 51.9011 49.801 51.978 49.8729C51.836 51.0709 53.257 51.6689 53.825 52.5679C57.801 48.0759 59.789 42.8359 60.072 36.5479H55.812ZM60.782 36.5479C60.641 42.9859 58.511 48.5259 54.392 53.1669L57.659 56.6099L58.511 55.5619C62.771 50.1719 65.185 43.8839 65.327 36.5479H60.783H60.782ZM27.554 36.6979L27.696 37.8949C27.838 37.5949 27.838 37.2959 27.838 36.8469L27.554 36.6969V36.6979ZM27.98 39.3929C28.406 41.1889 29.258 42.6859 30.394 44.0339L32.382 41.9379C32.382 41.7879 32.24 41.6379 32.098 41.4879C31.104 41.1889 31.246 39.9919 30.252 39.5419C30.11 39.8419 29.684 39.5419 29.4 39.6919C29.116 39.0919 28.406 39.6919 27.98 39.3919V39.3929ZM47.718 46.8789C47.292 47.1779 46.582 47.1779 46.014 47.0289L45.873 47.3279C46.583 47.6269 47.293 47.3279 48.003 47.1779L47.718 46.8779V46.8789ZM50.416 49.7229L49.28 50.7709C49.28 51.3709 49.848 51.6689 50.275 51.9689C50.133 52.5689 50.133 53.1669 49.565 53.6159C49.707 54.6639 48.855 55.4129 49.139 56.6099C50.701 55.7119 52.12 54.5139 53.399 53.0169L52.404 51.9689C52.404 52.2689 52.263 52.5689 52.12 52.7169C51.552 52.5679 51.41 51.9689 51.269 51.3699C51.836 50.6219 50.701 50.3219 50.416 49.7229ZM22.726 52.4179H22.584L22.442 52.2679C22.442 52.2679 22.584 52.4179 22.726 52.4179ZM58.096 66.3399C58.518 66.3399 59.083 66.0529 59.506 65.9089C64.021 64.6139 68.959 64.1829 72.769 61.1639L73.333 60.5879C73.193 61.3079 72.769 61.8819 72.487 62.6009C70.653 64.9019 68.113 65.9089 65.714 66.6279C62.61 67.7779 58.801 67.0589 55.556 67.7779L56.966 65.4779L60.211 58.7179L63.175 55.5559C62.328 59.4379 60.211 62.8889 58.095 66.3399H58.096ZM18.237 58.3469C19.89 60.6389 20.992 63.0839 21.818 65.8339C22.508 66.7499 22.92 67.8189 23.333 68.8889C23.058 68.8889 22.644 68.7359 22.369 68.5839L17.273 68.2779C14.931 68.1249 13.003 67.0559 10.937 66.2919C9.28401 65.2219 7.63101 63.6949 6.66701 61.8619C8.04401 62.6249 9.55901 63.5419 11.212 63.9999L16.997 65.6799C17.824 65.6799 18.375 66.2919 19.063 66.5969C20.027 66.9029 20.854 67.3609 21.818 67.5139C19.614 64.1529 16.998 60.7919 16.584 56.6669C17.135 56.9719 17.824 57.5829 18.237 58.3469Z" fill="#7B8BA5"/>
<path fill-rule="evenodd" clip-rule="evenodd" d="M37.778 68.9559C37.046 69.5109 36.168 69.9269 35.436 70.4819C33.679 70.3419 31.923 70.7589 30.313 71.0359C25.628 72.1459 19.481 73.2549 15.236 70.4819L13.333 69.3719C14.65 69.6499 15.968 70.2049 17.578 70.2049C19.188 70.3429 21.091 70.3429 22.555 69.7879L28.117 68.1239C31.337 67.5699 34.997 67.5699 37.777 68.9559H37.778ZM59.846 70.7559C62.313 70.8899 64.636 70.8899 66.666 69.9499C63.764 72.3679 59.991 73.1739 55.927 73.0399C51.283 72.2329 46.93 70.6209 41.995 71.2929C39.673 71.9649 37.351 72.3679 35.465 73.9799C34.449 74.6519 33.433 75.7259 32.417 76.6669C32.0473 76.3334 31.5973 76.1018 31.111 75.9949C36.481 71.1589 42.721 67.9349 50.413 69.1439C53.605 69.5469 56.508 70.7559 59.846 70.7559Z" fill="#7B8BA5"/>
<path fill-rule="evenodd" clip-rule="evenodd" d="M46.667 77.397C46.37 77.651 46.074 77.651 45.778 77.777C44.593 76.254 43.506 74.857 42.222 73.714C42.518 73.46 42.815 73.587 43.112 73.334C44.296 74.603 45.679 75.874 46.667 77.397Z" fill="#7B8BA5"/>
</svg>
