<svg width="12" height="11" viewBox="0 0 12 11" fill="none" xmlns="http://www.w3.org/2000/svg">
<path d="M8.586 4L6.293 1.707C6.11084 1.5184 6.01005 1.2658 6.01233 1.0036C6.0146 0.741403 6.11977 0.49059 6.30518 0.305182C6.49059 0.119774 6.7414 0.0146053 7.0036 0.0123268C7.2658 0.0100484 7.5184 0.110843 7.707 0.293001L11.707 4.293C11.8945 4.48053 11.9998 4.73484 11.9998 5C11.9998 5.26517 11.8945 5.51947 11.707 5.707L7.707 9.707C7.61475 9.80251 7.50441 9.87869 7.3824 9.9311C7.2604 9.98351 7.12918 10.0111 6.9964 10.0123C6.86362 10.0134 6.73194 9.9881 6.60905 9.93782C6.48615 9.88754 6.3745 9.81329 6.2806 9.7194C6.18671 9.6255 6.11246 9.51385 6.06218 9.39095C6.0119 9.26806 5.9866 9.13638 5.98775 9.0036C5.9889 8.87082 6.01649 8.7396 6.0689 8.6176C6.12131 8.49559 6.19749 8.38525 6.293 8.293L8.586 6H1C0.734784 6 0.48043 5.89464 0.292893 5.70711C0.105357 5.51957 0 5.26522 0 5C0 4.73478 0.105357 4.48043 0.292893 4.29289C0.48043 4.10536 0.734784 4 1 4H8.586Z" fill="#5C9FFF"/>
</svg>
