<svg width="29" height="30" viewBox="0 0 29 30" fill="none" xmlns="http://www.w3.org/2000/svg">
<path d="M27.25 8.731C27.25 4.88143 24.1186 1.75 20.2692 1.75C17.5704 1.75 15.1516 3.32181 14.0001 5.66239C12.8484 3.32181 10.4294 1.75 7.7308 1.75C3.88142 1.75 0.75 4.88143 0.75 8.731C0.75 11.4277 2.26822 13.8058 4.5914 14.9656C2.26822 16.1253 0.75 18.5034 0.75 21.2002C0.75 25.0497 3.88142 28.1812 7.7308 28.1812C10.4294 28.1812 12.8484 26.6093 14.0001 24.2688C15.1516 26.6093 17.5704 28.1812 20.2692 28.1812C24.1186 28.1812 27.25 25.0497 27.25 21.2002C27.25 18.5034 25.7318 16.1253 23.4086 14.9656C25.7318 13.8058 27.25 11.4277 27.25 8.731Z" stroke="#3DB370" stroke-width="2"/>
</svg>
