<svg width="320" height="208" viewBox="0 0 320 208" fill="none" xmlns="http://www.w3.org/2000/svg">
<path fill-rule="evenodd" clip-rule="evenodd" d="M98 20.5H14C12.2268 20.4977 10.4707 20.8458 8.83243 21.5244C7.19421 22.203 5.70623 23.1986 4.45401 24.454C3.19856 25.7062 2.20295 27.1942 1.52439 28.8324C0.845832 30.4707 0.497703 32.2268 0.500011 34V207.5H111.5V34C111.5 30.272 109.989 26.897 107.546 24.454C106.294 23.1986 104.806 22.203 103.168 21.5244C101.529 20.8458 99.7732 20.4977 98 20.5Z" fill="#F5F8FB" stroke="#D6DBE4"/>
<path fill-rule="evenodd" clip-rule="evenodd" d="M96 60.5H16C15.034 60.5 14.159 60.892 13.525 61.525C13.1995 61.8497 12.9414 62.2355 12.7655 62.6602C12.5896 63.085 12.4994 63.5403 12.5 64V120C12.5 120.966 12.892 121.841 13.525 122.475C13.8497 122.8 14.2355 123.059 14.6602 123.235C15.085 123.41 15.5403 123.501 16 123.5H96C96.966 123.5 97.841 123.108 98.475 122.475C98.8005 122.15 99.0586 121.765 99.2345 121.34C99.4104 120.915 99.5006 120.46 99.5 120V64C99.5 63.034 99.108 62.159 98.475 61.525C98.1503 61.1995 97.7645 60.9414 97.3398 60.7655C96.915 60.5896 96.4597 60.4994 96 60.5ZM96 132.5H16C15.034 132.5 14.159 132.892 13.525 133.525C13.1995 133.85 12.9414 134.235 12.7655 134.66C12.5896 135.085 12.4994 135.54 12.5 136V192C12.5 192.966 12.892 193.841 13.525 194.475C13.8497 194.8 14.2355 195.059 14.6602 195.234C15.085 195.41 15.5403 195.501 16 195.5H96C96.966 195.5 97.841 195.108 98.475 194.475C98.8005 194.15 99.0586 193.765 99.2345 193.34C99.4104 192.915 99.5006 192.46 99.5 192V136C99.5 135.034 99.108 134.159 98.475 133.525C98.1503 133.2 97.7645 132.941 97.3398 132.766C96.915 132.59 96.4597 132.499 96 132.5Z" fill="white" stroke="#E0E6ED"/>
<path d="M160.5 10.5L210.5 60.5M260 60L210.5 110L260 60ZM210.5 10.5V110V10.5ZM260 60L310 10L260 60ZM160.5 60.5L210.5 110.5L160.5 60.5Z" stroke="#D6DBE4"/>
<path d="M210 69.5C215.247 69.5 219.5 65.2467 219.5 60C219.5 54.7533 215.247 50.5 210 50.5C204.753 50.5 200.5 54.7533 200.5 60C200.5 65.2467 204.753 69.5 210 69.5Z" fill="#EAEEF2" stroke="#D6DBE4"/>
<path d="M160 119.5C165.247 119.5 169.5 115.247 169.5 110C169.5 104.753 165.247 100.5 160 100.5C154.753 100.5 150.5 104.753 150.5 110C150.5 115.247 154.753 119.5 160 119.5Z" fill="#EAEEF2" stroke="#D6DBE4"/>
<path d="M160 69.5C165.247 69.5 169.5 65.2467 169.5 60C169.5 54.7533 165.247 50.5 160 50.5C154.753 50.5 150.5 54.7533 150.5 60C150.5 65.2467 154.753 69.5 160 69.5Z" fill="#EAEEF2" stroke="#D6DBE4"/>
<path d="M160 160L210 110" stroke="#D6DBE4"/>
<path d="M310 19.5C315.247 19.5 319.5 15.2467 319.5 10C319.5 4.75329 315.247 0.5 310 0.5C304.753 0.5 300.5 4.75329 300.5 10C300.5 15.2467 304.753 19.5 310 19.5Z" fill="#EAEEF2" stroke="#D6DBE4"/>
<path d="M260.5 60V10" stroke="#D6DBE4"/>
<path d="M260 19.5C265.247 19.5 269.5 15.2467 269.5 10C269.5 4.75329 265.247 0.5 260 0.5C254.753 0.5 250.5 4.75329 250.5 10C250.5 15.2467 254.753 19.5 260 19.5Z" fill="#EAEEF2" stroke="#D6DBE4"/>
<path d="M260 69.5C265.247 69.5 269.5 65.2467 269.5 60C269.5 54.7533 265.247 50.5 260 50.5C254.753 50.5 250.5 54.7533 250.5 60C250.5 65.2467 254.753 69.5 260 69.5Z" fill="#EAEEF2" stroke="#D6DBE4"/>
<path d="M210 119.5C215.247 119.5 219.5 115.247 219.5 110C219.5 104.753 215.247 100.5 210 100.5C204.753 100.5 200.5 104.753 200.5 110C200.5 115.247 204.753 119.5 210 119.5Z" fill="#EAEEF2" stroke="#D6DBE4"/>
<path d="M210 19.5C215.247 19.5 219.5 15.2467 219.5 10C219.5 4.75329 215.247 0.5 210 0.5C204.753 0.5 200.5 4.75329 200.5 10C200.5 15.2467 204.753 19.5 210 19.5Z" fill="#EAEEF2" stroke="#D6DBE4"/>
<path d="M160 19.5C165.247 19.5 169.5 15.2467 169.5 10C169.5 4.75329 165.247 0.5 160 0.5C154.753 0.5 150.5 4.75329 150.5 10C150.5 15.2467 154.753 19.5 160 19.5Z" fill="#EAEEF2" stroke="#D6DBE4"/>
<path fill-rule="evenodd" clip-rule="evenodd" d="M56 79.5C55.034 79.5 54.159 79.892 53.525 80.525C53.1995 80.8497 52.9414 81.2355 52.7655 81.6602C52.5896 82.085 52.4994 82.5403 52.5 83V88.5H47C46.034 88.5 45.159 88.892 44.525 89.525C44.1995 89.8497 43.9414 90.2355 43.7655 90.6602C43.5896 91.085 43.4994 91.5403 43.5 92C43.5 92.966 43.892 93.841 44.525 94.475C44.8497 94.8005 45.2355 95.0586 45.6602 95.2345C46.085 95.4104 46.5403 95.5006 47 95.5H52.5V101C52.5 101.966 52.892 102.841 53.525 103.475C53.8497 103.8 54.2355 104.059 54.6602 104.235C55.085 104.41 55.5403 104.501 56 104.5C56.966 104.5 57.841 104.108 58.475 103.475C58.8005 103.15 59.0586 102.765 59.2345 102.34C59.4104 101.915 59.5006 101.46 59.5 101V95.5H65C65.966 95.5 66.841 95.108 67.475 94.475C67.8005 94.1503 68.0586 93.7645 68.2345 93.3398C68.4104 92.915 68.5006 92.4597 68.5 92C68.5 91.034 68.108 90.159 67.475 89.525C67.1503 89.1995 66.7645 88.9414 66.3398 88.7655C65.9151 88.5896 65.4597 88.4994 65 88.5H59.5V83C59.5 82.034 59.108 81.159 58.475 80.525C58.1503 80.1995 57.7645 79.9414 57.3398 79.7655C56.9151 79.5896 56.4597 79.4994 56 79.5Z" fill="#5C9FFF" stroke="#164798" stroke-linecap="round"/>
<path d="M90 44.5H104M90 36.5H104H90ZM90 40.5H104H90ZM90 44.5H104H90ZM90 36.5H104H90ZM90 40.5H104H90Z" stroke="#D6DBE4"/>
<path fill-rule="evenodd" clip-rule="evenodd" d="M58.364 156.906L61.521 151.438C61.6188 151.266 61.7496 151.115 61.9059 150.994C62.0623 150.873 62.2411 150.784 62.432 150.732C62.6229 150.68 62.8221 150.666 63.0183 150.692C63.2145 150.717 63.4037 150.782 63.575 150.88C63.7463 150.979 63.8964 151.111 64.0165 151.268C64.1367 151.425 64.2246 151.605 64.2751 151.796C64.3257 151.987 64.3379 152.187 64.3111 152.383C64.2843 152.579 64.219 152.767 64.119 152.938L60.962 158.406L58.364 156.906ZM51.038 169.594L47.881 175.062C47.781 175.233 47.7157 175.421 47.6889 175.617C47.6621 175.813 47.6743 176.013 47.7249 176.204C47.7754 176.395 47.8633 176.575 47.9835 176.732C48.1036 176.889 48.2537 177.021 48.425 177.12C48.5963 177.219 48.7855 177.283 48.9817 177.308C49.1779 177.334 49.3771 177.32 49.568 177.268C49.7589 177.216 49.9377 177.127 50.0941 177.006C50.2504 176.885 50.3812 176.734 50.479 176.562L53.636 171.094L51.038 169.594ZM63.5 162.5H69.5C69.8978 162.5 70.2794 162.658 70.5607 162.939C70.842 163.221 71 163.602 71 164C71 164.398 70.842 164.779 70.5607 165.061C70.2794 165.342 69.8978 165.5 69.5 165.5H63.5V162.5ZM48.5 162.5H42.5C42.1022 162.5 41.7206 162.658 41.4393 162.939C41.158 163.221 41 163.602 41 164C41 164.398 41.158 164.779 41.4393 165.061C41.7206 165.342 42.1022 165.5 42.5 165.5H48.5V162.5ZM60.961 169.595L64.118 175.063C64.218 175.234 64.2833 175.422 64.3101 175.618C64.3369 175.814 64.3247 176.014 64.2741 176.205C64.2236 176.396 64.1357 176.576 64.0155 176.733C63.8954 176.89 63.7453 177.022 63.574 177.121C63.4027 177.22 63.2135 177.284 63.0173 177.309C62.8211 177.335 62.6219 177.321 62.431 177.269C62.2401 177.217 62.0613 177.128 61.9049 177.007C61.7486 176.886 61.6178 176.735 61.52 176.563L58.363 171.095L60.961 169.595ZM53.636 156.906L50.48 151.438C50.3822 151.266 50.2514 151.115 50.0951 150.994C49.9387 150.873 49.7599 150.784 49.569 150.732C49.3781 150.68 49.1789 150.666 48.9827 150.692C48.7865 150.717 48.5973 150.782 48.426 150.88C48.2547 150.979 48.1046 151.111 47.9845 151.268C47.8643 151.425 47.7764 151.605 47.7259 151.796C47.6753 151.987 47.6631 152.187 47.6899 152.383C47.7167 152.579 47.782 152.767 47.882 152.938L51.039 158.406" fill="#5C9FFF"/>
<path d="M53.636 156.906L50.48 151.438C50.3822 151.266 50.2514 151.115 50.0951 150.994C49.9387 150.873 49.7599 150.784 49.569 150.732C49.3781 150.68 49.1789 150.666 48.9827 150.692C48.7865 150.717 48.5973 150.782 48.426 150.88C48.2547 150.979 48.1046 151.111 47.9845 151.268C47.8643 151.425 47.7764 151.605 47.7259 151.796C47.6753 151.987 47.6631 152.187 47.6899 152.383C47.7167 152.579 47.782 152.767 47.882 152.938L51.039 158.406M58.364 156.906L61.521 151.438C61.6188 151.266 61.7496 151.115 61.9059 150.994C62.0623 150.873 62.2411 150.784 62.432 150.732C62.6229 150.68 62.8221 150.666 63.0183 150.692C63.2145 150.717 63.4037 150.782 63.575 150.88C63.7463 150.979 63.8964 151.111 64.0165 151.268C64.1367 151.425 64.2246 151.605 64.2751 151.796C64.3257 151.987 64.3379 152.187 64.3111 152.383C64.2843 152.579 64.219 152.767 64.119 152.938L60.962 158.406L58.364 156.906ZM51.038 169.594L47.881 175.062C47.781 175.233 47.7157 175.421 47.6889 175.617C47.6621 175.813 47.6743 176.013 47.7249 176.204C47.7754 176.395 47.8633 176.575 47.9835 176.732C48.1036 176.889 48.2537 177.021 48.425 177.12C48.5963 177.219 48.7855 177.283 48.9817 177.308C49.1779 177.334 49.3771 177.32 49.568 177.268C49.7589 177.216 49.9377 177.127 50.0941 177.006C50.2504 176.885 50.3812 176.734 50.479 176.562L53.636 171.094L51.038 169.594ZM63.5 162.5H69.5C69.8978 162.5 70.2794 162.658 70.5607 162.939C70.842 163.221 71 163.602 71 164C71 164.398 70.842 164.779 70.5607 165.061C70.2794 165.342 69.8978 165.5 69.5 165.5H63.5V162.5ZM48.5 162.5H42.5C42.1022 162.5 41.7206 162.658 41.4393 162.939C41.158 163.221 41 163.602 41 164C41 164.398 41.158 164.779 41.4393 165.061C41.7206 165.342 42.1022 165.5 42.5 165.5H48.5V162.5ZM60.961 169.595L64.118 175.063C64.218 175.234 64.2833 175.422 64.3101 175.618C64.3369 175.814 64.3247 176.014 64.2741 176.205C64.2236 176.396 64.1357 176.576 64.0155 176.733C63.8954 176.89 63.7453 177.022 63.574 177.121C63.4027 177.22 63.2135 177.284 63.0173 177.309C62.8211 177.335 62.6219 177.321 62.431 177.269C62.2401 177.217 62.0613 177.128 61.9049 177.007C61.7486 176.886 61.6178 176.735 61.52 176.563L58.363 171.095L60.961 169.595Z" stroke="#164798" stroke-linecap="round"/>
<path d="M56 175.721C62.6274 175.721 68 170.473 68 164C68 157.527 62.6274 152.279 56 152.279C49.3726 152.279 44 157.527 44 164C44 170.473 49.3726 175.721 56 175.721Z" fill="#5C9FFF" stroke="#164798" stroke-linecap="round"/>
<path fill-rule="evenodd" clip-rule="evenodd" d="M54.5 156.674V150.5C54.5 150.102 54.658 149.721 54.9393 149.439C55.2206 149.158 55.6022 149 56 149C56.3978 149 56.7794 149.158 57.0607 149.439C57.342 149.721 57.5 150.102 57.5 150.5V156.674H54.5ZM54.5 171.326V177.5C54.5 177.898 54.658 178.279 54.9393 178.561C55.2206 178.842 55.6022 179 56 179C56.3978 179 56.7794 178.842 57.0607 178.561C57.342 178.279 57.5 177.898 57.5 177.5V171.326H54.5ZM61.595 159.038L67.063 155.881C67.4073 155.685 67.8151 155.634 68.1974 155.737C68.5797 155.841 68.9054 156.092 69.1034 156.435C69.3015 156.778 69.3558 157.185 69.2546 157.568C69.1533 157.951 68.9047 158.279 68.563 158.479L63.095 161.636L61.595 159.038ZM48.906 166.364L43.438 169.52C43.0963 169.72 42.8477 170.048 42.7464 170.431C42.6452 170.814 42.6995 171.221 42.8976 171.564C43.0956 171.907 43.4213 172.158 43.8036 172.262C44.1859 172.365 44.5937 172.314 44.938 172.118L50.406 168.961L48.906 166.364ZM63.094 166.363L68.562 169.52C68.9037 169.72 69.1523 170.048 69.2536 170.431C69.3548 170.814 69.3005 171.221 69.1024 171.564C68.9044 171.907 68.5787 172.158 68.1964 172.262C67.8141 172.365 67.4063 172.314 67.062 172.118L61.594 168.961L63.094 166.363ZM50.406 159.038L44.938 155.881C44.7673 155.781 44.5786 155.716 44.3826 155.689C44.1866 155.662 43.9872 155.674 43.796 155.725C43.6047 155.775 43.4254 155.863 43.2682 155.983C43.1111 156.104 42.9793 156.254 42.8804 156.425C42.7814 156.596 42.7174 156.786 42.6919 156.982C42.6664 157.178 42.68 157.377 42.7318 157.568C42.7836 157.759 42.8727 157.938 42.9939 158.094C43.1151 158.25 43.266 158.381 43.438 158.479L48.906 161.636" fill="#5C9FFF"/>
<path d="M50.406 159.038L44.938 155.881C44.7673 155.781 44.5786 155.716 44.3826 155.689C44.1866 155.662 43.9872 155.674 43.796 155.725C43.6047 155.775 43.4254 155.863 43.2682 155.983C43.1111 156.104 42.9793 156.254 42.8804 156.425C42.7814 156.596 42.7174 156.786 42.6919 156.982C42.6664 157.178 42.68 157.377 42.7318 157.568C42.7836 157.759 42.8727 157.938 42.9939 158.094C43.1151 158.25 43.266 158.381 43.438 158.479L48.906 161.636M54.5 156.674V150.5C54.5 150.102 54.658 149.721 54.9393 149.439C55.2206 149.158 55.6022 149 56 149C56.3978 149 56.7794 149.158 57.0607 149.439C57.342 149.721 57.5 150.102 57.5 150.5V156.674H54.5ZM54.5 171.326V177.5C54.5 177.898 54.658 178.279 54.9393 178.561C55.2206 178.842 55.6022 179 56 179C56.3978 179 56.7794 178.842 57.0607 178.561C57.342 178.279 57.5 177.898 57.5 177.5V171.326H54.5ZM61.595 159.038L67.063 155.881C67.4073 155.685 67.8151 155.634 68.1974 155.737C68.5797 155.841 68.9054 156.092 69.1034 156.435C69.3015 156.778 69.3558 157.185 69.2546 157.568C69.1533 157.951 68.9047 158.279 68.563 158.479L63.095 161.636L61.595 159.038ZM48.906 166.364L43.438 169.52C43.0963 169.72 42.8477 170.048 42.7464 170.431C42.6452 170.814 42.6995 171.221 42.8976 171.564C43.0956 171.907 43.4213 172.158 43.8036 172.262C44.1859 172.365 44.5937 172.314 44.938 172.118L50.406 168.961L48.906 166.364ZM63.094 166.363L68.562 169.52C68.9037 169.72 69.1523 170.048 69.2536 170.431C69.3548 170.814 69.3005 171.221 69.1024 171.564C68.9044 171.907 68.5787 172.158 68.1964 172.262C67.8141 172.365 67.4063 172.314 67.062 172.118L61.594 168.961L63.094 166.363Z" stroke="#164798" stroke-linecap="round"/>
<path d="M160.5 170V207.5H1.5" stroke="#D6DBE4"/>
<path d="M160 169.5C165.247 169.5 169.5 165.247 169.5 160C169.5 154.753 165.247 150.5 160 150.5C154.753 150.5 150.5 154.753 150.5 160C150.5 165.247 154.753 169.5 160 169.5Z" fill="#EAEEF2" stroke="#D6DBE4"/>
<path d="M160.5 150V119.5" stroke="#D6DBE4"/>
</svg>
