<svg width="488" height="209" viewBox="0 0 488 209" fill="none" xmlns="http://www.w3.org/2000/svg">
<rect y="208" width="488" height="1" fill="#324B72"/>
<path d="M282 72H94C88.4772 72 84 76.4772 84 82V146C84 151.523 88.4772 156 94 156H282C287.523 156 292 151.523 292 146V82C292 76.4772 287.523 72 282 72Z" fill="#112950" stroke="#7B8BA5" stroke-width="2" stroke-dasharray="7 7"/>
<path d="M281.5 0.5H94.5C88.9772 0.5 84.5 4.97715 84.5 10.5V43.5C84.5 49.0228 88.9772 53.5 94.5 53.5H281.5C287.023 53.5 291.5 49.0228 291.5 43.5V10.5C291.5 4.97715 287.023 0.5 281.5 0.5Z" fill="#324B72" stroke="#49638C"/>
<path fill-rule="evenodd" clip-rule="evenodd" d="M112 92.707L102.707 102L112 111.293L114.293 109L107.293 102L114.293 95L112 92.707ZM126 92.707L135.293 102L126 111.293L123.707 109L130.707 102L123.707 95L126 92.707Z" fill="#324B72" stroke="#49638C"/>
<path d="M393.5 0.5H320.5C314.977 0.5 310.5 4.97715 310.5 10.5V73.5C310.5 79.0229 314.977 83.5 320.5 83.5H393.5C399.023 83.5 403.5 79.0229 403.5 73.5V10.5C403.5 4.97715 399.023 0.5 393.5 0.5Z" fill="#324B72" stroke="#49638C"/>
<path d="M393.5 102.5H320.5C314.977 102.5 310.5 106.977 310.5 112.5V145.5C310.5 151.023 314.977 155.5 320.5 155.5H393.5C399.023 155.5 403.5 151.023 403.5 145.5V112.5C403.5 106.977 399.023 102.5 393.5 102.5Z" fill="#324B72" stroke="#49638C"/>
<path opacity="0.344" fill-rule="evenodd" clip-rule="evenodd" d="M335 92C250 41.333 191.5 16 159.5 16C111.5 16 84 58.5 84 84V146C84 151.523 88.477 156 94 156H282.5C291.193 156 293.5 145.5 328.5 140C331.833 127 334 111 335 92Z" fill="#5C9FFF"/>
<path d="M326.5 15.5H162.5C156.977 15.5 152.5 19.9772 152.5 25.5V130.5C152.5 136.023 156.977 140.5 162.5 140.5H326.5C332.023 140.5 336.5 136.023 336.5 130.5V25.5C336.5 19.9772 332.023 15.5 326.5 15.5Z" fill="#A6BCE2" stroke="#112950"/>
<path fill-rule="evenodd" clip-rule="evenodd" d="M247.45 40.755L250.7 35.125C250.798 34.9544 250.93 34.8048 251.086 34.6848C251.242 34.5649 251.421 34.4768 251.611 34.4258C251.801 34.3748 252 34.3618 252.195 34.3874C252.39 34.4131 252.579 34.477 252.75 34.5755C252.92 34.674 253.07 34.8052 253.19 34.9615C253.31 35.1178 253.398 35.2962 253.449 35.4865C253.5 35.6768 253.513 35.8753 253.487 36.0706C253.461 36.266 253.397 36.4544 253.299 36.625L250.049 42.255L247.45 40.755ZM239.95 53.745L236.7 59.375C236.501 59.7197 236.447 60.1292 236.55 60.5136C236.653 60.8979 236.905 61.2256 237.25 61.4245C237.594 61.6234 238.004 61.6773 238.388 61.5742C238.772 61.4712 239.1 61.2197 239.299 60.875L242.549 55.245L239.95 53.745ZM252.5 46.5H259C259.398 46.5 259.779 46.6581 260.061 46.9394C260.342 47.2207 260.5 47.6022 260.5 48C260.5 48.3979 260.342 48.7794 260.061 49.0607C259.779 49.342 259.398 49.5 259 49.5H252.5V46.5ZM237.5 46.5H231C230.602 46.5 230.221 46.6581 229.939 46.9394C229.658 47.2207 229.5 47.6022 229.5 48C229.5 48.3979 229.658 48.7794 229.939 49.0607C230.221 49.342 230.602 49.5 231 49.5H237.5" fill="#5C9FFF"/>
<path d="M237.5 46.5H231C230.602 46.5 230.221 46.6581 229.939 46.9394C229.658 47.2207 229.5 47.6022 229.5 48C229.5 48.3979 229.658 48.7794 229.939 49.0607C230.221 49.342 230.602 49.5 231 49.5H237.5M247.45 40.755L250.7 35.125C250.798 34.9544 250.93 34.8048 251.086 34.6848C251.242 34.5649 251.421 34.4768 251.611 34.4258C251.801 34.3748 252 34.3618 252.195 34.3874C252.39 34.4131 252.579 34.477 252.75 34.5755C252.92 34.674 253.07 34.8052 253.19 34.9615C253.31 35.1178 253.398 35.2962 253.449 35.4865C253.5 35.6768 253.513 35.8753 253.487 36.0706C253.461 36.266 253.397 36.4544 253.299 36.625L250.049 42.255L247.45 40.755ZM239.95 53.745L236.7 59.375C236.501 59.7197 236.447 60.1292 236.55 60.5136C236.653 60.8979 236.905 61.2256 237.25 61.4245C237.594 61.6234 238.004 61.6773 238.388 61.5742C238.772 61.4712 239.1 61.2197 239.299 60.875L242.549 55.245L239.95 53.745ZM252.5 46.5H259C259.398 46.5 259.779 46.6581 260.061 46.9394C260.342 47.2207 260.5 47.6022 260.5 48C260.5 48.3979 260.342 48.7794 260.061 49.0607C259.779 49.342 259.398 49.5 259 49.5H252.5V46.5Z" stroke="#164798" stroke-linecap="round"/>
<path fill-rule="evenodd" clip-rule="evenodd" d="M250.049 53.7451L253.299 59.3751C253.399 59.5457 253.464 59.7345 253.491 59.9305C253.518 60.1265 253.506 60.3258 253.455 60.5171C253.405 60.7083 253.317 60.8877 253.197 61.0448C253.076 61.202 252.926 61.3338 252.755 61.4327C252.584 61.5316 252.394 61.5957 252.198 61.6212C252.002 61.6467 251.803 61.6331 251.612 61.5813C251.421 61.5294 251.242 61.4404 251.086 61.3192C250.93 61.198 250.799 61.047 250.701 60.8751L247.451 55.2451L250.049 53.7451ZM242.549 40.7551L239.299 35.1251C239.099 34.7833 238.771 34.5347 238.388 34.4335C238.005 34.3323 237.598 34.3866 237.255 34.5846C236.912 34.7827 236.661 35.1084 236.557 35.4907C236.454 35.8729 236.505 36.2807 236.701 36.6251L239.951 42.2551" fill="#5C9FFF"/>
<path d="M242.549 40.7551L239.299 35.1251C239.099 34.7833 238.771 34.5347 238.388 34.4335C238.005 34.3323 237.598 34.3866 237.255 34.5846C236.912 34.7827 236.661 35.1084 236.557 35.4907C236.454 35.8729 236.505 36.2807 236.701 36.6251L239.951 42.2551M250.049 53.7451L253.299 59.3751C253.399 59.5457 253.464 59.7345 253.491 59.9305C253.518 60.1265 253.506 60.3258 253.455 60.5171C253.405 60.7083 253.317 60.8877 253.197 61.0448C253.076 61.202 252.926 61.3338 252.755 61.4327C252.584 61.5316 252.394 61.5957 252.198 61.6212C252.002 61.6467 251.803 61.6331 251.612 61.5813C251.421 61.5294 251.242 61.4404 251.086 61.3192C250.93 61.198 250.799 61.047 250.701 60.8751L247.451 55.2451L250.049 53.7451Z" stroke="#164798" stroke-linecap="round"/>
<path d="M245 60C251.627 60 257 54.6274 257 48C257 41.3726 251.627 36 245 36C238.373 36 233 41.3726 233 48C233 54.6274 238.373 60 245 60Z" fill="#5C9FFF" stroke="#164798" stroke-linecap="round"/>
<path fill-rule="evenodd" clip-rule="evenodd" d="M243.5 40.5V34C243.5 33.6022 243.658 33.2206 243.939 32.9393C244.221 32.658 244.602 32.5 245 32.5C245.398 32.5 245.779 32.658 246.061 32.9393C246.342 33.2206 246.5 33.6022 246.5 34V40.5H243.5ZM243.5 55.5V62C243.5 62.3978 243.658 62.7794 243.939 63.0607C244.221 63.342 244.602 63.5 245 63.5C245.398 63.5 245.779 63.342 246.061 63.0607C246.342 62.7794 246.5 62.3978 246.5 62V55.5H243.5ZM250.745 42.95L256.375 39.7C256.546 39.6015 256.734 39.5376 256.929 39.5119C257.125 39.4862 257.323 39.4993 257.514 39.5503C257.704 39.6013 257.882 39.6893 258.039 39.8093C258.195 39.9293 258.326 40.0788 258.425 40.2495C258.523 40.4202 258.587 40.6085 258.613 40.8039C258.638 40.9992 258.625 41.1977 258.574 41.3881C258.523 41.5784 258.435 41.7568 258.315 41.9131C258.195 42.0694 258.046 42.2005 257.875 42.299L252.245 45.549L250.745 42.95ZM237.755 50.45L232.125 53.7C231.78 53.8989 231.529 54.2266 231.426 54.6109C231.323 54.9953 231.377 55.4049 231.576 55.7495C231.774 56.0941 232.102 56.3457 232.486 56.4487C232.871 56.5518 233.28 56.4979 233.625 56.299L239.255 53.049" fill="#5C9FFF"/>
<path d="M237.755 50.45L232.125 53.7C231.78 53.8989 231.529 54.2266 231.426 54.6109C231.323 54.9953 231.377 55.4049 231.576 55.7495C231.774 56.0941 232.102 56.3457 232.486 56.4487C232.871 56.5518 233.28 56.4979 233.625 56.299L239.255 53.049M243.5 40.5V34C243.5 33.6022 243.658 33.2206 243.939 32.9393C244.221 32.658 244.602 32.5 245 32.5C245.398 32.5 245.779 32.658 246.061 32.9393C246.342 33.2206 246.5 33.6022 246.5 34V40.5H243.5ZM243.5 55.5V62C243.5 62.3978 243.658 62.7794 243.939 63.0607C244.221 63.342 244.602 63.5 245 63.5C245.398 63.5 245.779 63.342 246.061 63.0607C246.342 62.7794 246.5 62.3978 246.5 62V55.5H243.5ZM250.745 42.95L256.375 39.7C256.546 39.6015 256.734 39.5376 256.929 39.5119C257.125 39.4862 257.323 39.4993 257.514 39.5503C257.704 39.6013 257.882 39.6893 258.039 39.8093C258.195 39.9293 258.326 40.0788 258.425 40.2495C258.523 40.4202 258.587 40.6085 258.613 40.8039C258.638 40.9992 258.625 41.1977 258.574 41.3881C258.523 41.5784 258.435 41.7568 258.315 41.9131C258.195 42.0694 258.046 42.2005 257.875 42.299L252.245 45.549L250.745 42.95Z" stroke="#164798" stroke-linecap="round"/>
<path fill-rule="evenodd" clip-rule="evenodd" d="M252.245 50.451L257.875 53.701C258.047 53.7988 258.198 53.9296 258.319 54.086C258.44 54.2423 258.529 54.4211 258.581 54.612C258.633 54.8029 258.647 55.0022 258.621 55.1983C258.596 55.3945 258.532 55.5837 258.433 55.755C258.334 55.9263 258.202 56.0764 258.045 56.1966C257.888 56.3167 257.708 56.4046 257.517 56.4552C257.326 56.5057 257.126 56.518 256.93 56.4912C256.734 56.4644 256.546 56.3991 256.375 56.299L250.745 53.049L252.245 50.451ZM239.255 42.951L233.625 39.701C233.281 39.5053 232.873 39.4536 232.491 39.5574C232.108 39.6612 231.783 39.912 231.585 40.255C231.387 40.598 231.332 41.0055 231.433 41.3884C231.535 41.7714 231.783 42.0987 232.125 42.299L237.755 45.549" fill="#5C9FFF"/>
<path d="M239.255 42.951L233.625 39.701C233.281 39.5053 232.873 39.4536 232.491 39.5574C232.108 39.6612 231.783 39.912 231.585 40.255C231.387 40.598 231.332 41.0055 231.433 41.3884C231.535 41.7714 231.783 42.0987 232.125 42.299L237.755 45.549M252.245 50.451L257.875 53.701C258.047 53.7988 258.198 53.9296 258.319 54.086C258.44 54.2423 258.529 54.4211 258.581 54.612C258.633 54.8029 258.647 55.0022 258.621 55.1983C258.596 55.3945 258.532 55.5837 258.433 55.755C258.334 55.9263 258.202 56.0764 258.045 56.1966C257.888 56.3167 257.708 56.4046 257.517 56.4552C257.326 56.5057 257.126 56.518 256.93 56.4912C256.734 56.4644 256.546 56.3991 256.375 56.299L250.745 53.049L252.245 50.451Z" stroke="#164798" stroke-linecap="round"/>
<path fill-rule="evenodd" clip-rule="evenodd" d="M278 81.5H211C210.409 81.4992 209.824 81.6153 209.277 81.8415C208.731 82.0677 208.235 82.3995 207.818 82.818C207.4 83.2354 207.068 83.7314 206.841 84.2775C206.615 84.8236 206.499 85.4089 206.5 86V99C206.5 100.243 207.004 101.368 207.818 102.182C208.235 102.6 208.731 102.932 209.277 103.159C209.824 103.385 210.409 103.501 211 103.5H278C278.591 103.501 279.176 103.385 279.723 103.159C280.269 102.932 280.765 102.6 281.182 102.182C281.6 101.765 281.932 101.269 282.159 100.723C282.385 100.176 282.501 99.5911 282.5 99V86C282.501 85.4089 282.385 84.8236 282.159 84.2775C281.932 83.7314 281.6 83.2354 281.182 82.818C280.765 82.3995 280.269 82.0677 279.723 81.8415C279.176 81.6153 278.591 81.4992 278 81.5Z" fill="#5C9FFF" stroke="#164798" stroke-linecap="round"/>
<path fill-rule="evenodd" clip-rule="evenodd" d="M227.5 86.5H223.5V90.5H219.5V94.5H223.5V98.5H227.5V94.5H231.5V90.5H227.5V86.5Z" fill="white" stroke="#164798" stroke-linecap="round"/>
<path d="M219 127.5H250M219 113.5H271H219ZM238 95.5H271H238ZM238 89.5H259H238ZM219 120.5H271H219Z" stroke="#164798"/>
<path fill-rule="evenodd" clip-rule="evenodd" d="M169 174.5H94C92.7522 174.498 91.5163 174.743 90.3634 175.221C89.2105 175.698 88.1633 176.399 87.282 177.282C86.3986 178.163 85.698 179.21 85.2205 180.363C84.7431 181.516 84.4982 182.752 84.5 184V207.5H178.5V184C178.502 182.752 178.257 181.516 177.779 180.363C177.302 179.21 176.601 178.163 175.718 177.282C174.837 176.399 173.79 175.698 172.637 175.221C171.484 174.743 170.248 174.498 169 174.5ZM282 174.5H207C205.752 174.498 204.516 174.743 203.363 175.221C202.21 175.698 201.163 176.399 200.282 177.282C199.399 178.163 198.698 179.21 198.221 180.363C197.743 181.516 197.498 182.752 197.5 184V207.5H291.5V184C291.502 182.752 291.257 181.516 290.779 180.363C290.302 179.21 289.601 178.163 288.718 177.282C287.837 176.399 286.79 175.698 285.637 175.221C284.484 174.743 283.248 174.498 282 174.5ZM394 174.5H320C318.752 174.498 317.516 174.743 316.363 175.221C315.21 175.698 314.163 176.399 313.282 177.282C312.399 178.163 311.698 179.21 311.221 180.363C310.743 181.516 310.498 182.752 310.5 184V207.5H403.5V184C403.502 182.752 403.257 181.516 402.779 180.363C402.302 179.21 401.601 178.163 400.718 177.282C399.837 176.399 398.79 175.698 397.637 175.221C396.484 174.743 395.248 174.498 394 174.5Z" fill="#324B72" stroke="#49638C"/>
</svg>
