<svg width="488" height="209" viewBox="0 0 488 209" fill="none" xmlns="http://www.w3.org/2000/svg">
<rect y="208" width="488" height="1" fill="#E0E6ED"/>
<path d="M263.5 78.5H363.5" stroke="#BBC4D3"/>
<path d="M391.5 0.5H326.5C319.873 0.5 314.5 5.87258 314.5 12.5V164.5C314.5 171.127 319.873 176.5 326.5 176.5H391.5C398.127 176.5 403.5 171.127 403.5 164.5V12.5C403.5 5.87258 398.127 0.5 391.5 0.5Z" fill="white" stroke="#D6DBE4"/>
<path fill-rule="evenodd" clip-rule="evenodd" d="M360.45 44.755L363.7 39.125C363.798 38.9544 363.93 38.8048 364.086 38.6848C364.242 38.5649 364.421 38.4768 364.611 38.4258C364.801 38.3748 365 38.3618 365.195 38.3874C365.39 38.4131 365.579 38.477 365.75 38.5755C365.92 38.674 366.07 38.8052 366.19 38.9615C366.31 39.1178 366.398 39.2962 366.449 39.4865C366.5 39.6768 366.513 39.8753 366.487 40.0706C366.461 40.266 366.397 40.4544 366.299 40.625L363.049 46.255L360.45 44.755ZM352.95 57.745L349.7 63.375C349.501 63.7197 349.447 64.1292 349.55 64.5136C349.653 64.8979 349.905 65.2256 350.25 65.4245C350.594 65.6234 351.004 65.6773 351.388 65.5742C351.772 65.4712 352.1 65.2197 352.299 64.875L355.549 59.245L352.95 57.745ZM365.5 50.5H372C372.398 50.5 372.779 50.6581 373.061 50.9394C373.342 51.2207 373.5 51.6022 373.5 52C373.5 52.3979 373.342 52.7794 373.061 53.0607C372.779 53.342 372.398 53.5 372 53.5H365.5V50.5ZM350.5 50.5H344C343.602 50.5 343.221 50.6581 342.939 50.9394C342.658 51.2207 342.5 51.6022 342.5 52C342.5 52.3979 342.658 52.7794 342.939 53.0607C343.221 53.342 343.602 53.5 344 53.5H350.5" fill="#5C9FFF"/>
<path d="M350.5 50.5H344C343.602 50.5 343.221 50.6581 342.939 50.9394C342.658 51.2207 342.5 51.6022 342.5 52C342.5 52.3979 342.658 52.7794 342.939 53.0607C343.221 53.342 343.602 53.5 344 53.5H350.5M360.45 44.755L363.7 39.125C363.798 38.9544 363.93 38.8048 364.086 38.6848C364.242 38.5649 364.421 38.4768 364.611 38.4258C364.801 38.3748 365 38.3618 365.195 38.3874C365.39 38.4131 365.579 38.477 365.75 38.5755C365.92 38.674 366.07 38.8052 366.19 38.9615C366.31 39.1178 366.398 39.2962 366.449 39.4865C366.5 39.6768 366.513 39.8753 366.487 40.0706C366.461 40.266 366.397 40.4544 366.299 40.625L363.049 46.255L360.45 44.755ZM352.95 57.745L349.7 63.375C349.501 63.7197 349.447 64.1292 349.55 64.5136C349.653 64.8979 349.905 65.2256 350.25 65.4245C350.594 65.6234 351.004 65.6773 351.388 65.5742C351.772 65.4712 352.1 65.2197 352.299 64.875L355.549 59.245L352.95 57.745ZM365.5 50.5H372C372.398 50.5 372.779 50.6581 373.061 50.9394C373.342 51.2207 373.5 51.6022 373.5 52C373.5 52.3979 373.342 52.7794 373.061 53.0607C372.779 53.342 372.398 53.5 372 53.5H365.5V50.5Z" stroke="#164798" stroke-linecap="round"/>
<path fill-rule="evenodd" clip-rule="evenodd" d="M363.049 57.7451L366.299 63.3751C366.399 63.5457 366.464 63.7345 366.491 63.9305C366.518 64.1265 366.506 64.3258 366.455 64.5171C366.405 64.7083 366.317 64.8877 366.197 65.0448C366.076 65.202 365.926 65.3338 365.755 65.4327C365.584 65.5316 365.395 65.5957 365.198 65.6212C365.002 65.6467 364.803 65.6331 364.612 65.5813C364.421 65.5294 364.242 65.4404 364.086 65.3192C363.93 65.198 363.799 65.047 363.701 64.8751L360.451 59.2451L363.049 57.7451ZM355.549 44.7551L352.299 39.1251C352.099 38.7833 351.771 38.5347 351.388 38.4335C351.005 38.3323 350.598 38.3866 350.255 38.5846C349.912 38.7827 349.661 39.1084 349.557 39.4907C349.454 39.8729 349.505 40.2807 349.701 40.6251L352.951 46.2551" fill="#5C9FFF"/>
<path d="M355.549 44.7551L352.299 39.1251C352.099 38.7833 351.771 38.5347 351.388 38.4335C351.005 38.3323 350.598 38.3866 350.255 38.5846C349.912 38.7827 349.661 39.1084 349.557 39.4907C349.454 39.8729 349.505 40.2807 349.701 40.6251L352.951 46.2551M363.049 57.7451L366.299 63.3751C366.399 63.5457 366.464 63.7345 366.491 63.9305C366.518 64.1265 366.506 64.3258 366.455 64.5171C366.405 64.7083 366.317 64.8877 366.197 65.0448C366.076 65.202 365.926 65.3338 365.755 65.4327C365.584 65.5316 365.395 65.5957 365.198 65.6212C365.002 65.6467 364.803 65.6331 364.612 65.5813C364.421 65.5294 364.242 65.4404 364.086 65.3192C363.93 65.198 363.799 65.047 363.701 64.8751L360.451 59.2451L363.049 57.7451Z" stroke="#164798" stroke-linecap="round"/>
<path d="M358 64C364.627 64 370 58.6274 370 52C370 45.3726 364.627 40 358 40C351.373 40 346 45.3726 346 52C346 58.6274 351.373 64 358 64Z" fill="#5C9FFF" stroke="#164798" stroke-linecap="round"/>
<path fill-rule="evenodd" clip-rule="evenodd" d="M356.5 44.5V38C356.5 37.6022 356.658 37.2206 356.939 36.9393C357.221 36.658 357.602 36.5 358 36.5C358.398 36.5 358.779 36.658 359.061 36.9393C359.342 37.2206 359.5 37.6022 359.5 38V44.5H356.5ZM356.5 59.5V66C356.5 66.3978 356.658 66.7794 356.939 67.0607C357.221 67.342 357.602 67.5 358 67.5C358.398 67.5 358.779 67.342 359.061 67.0607C359.342 66.7794 359.5 66.3978 359.5 66V59.5H356.5ZM363.745 46.95L369.375 43.7C369.546 43.6015 369.734 43.5376 369.929 43.5119C370.125 43.4862 370.323 43.4993 370.514 43.5503C370.704 43.6013 370.882 43.6893 371.039 43.8093C371.195 43.9293 371.326 44.0788 371.425 44.2495C371.523 44.4202 371.587 44.6085 371.613 44.8039C371.638 44.9992 371.625 45.1977 371.574 45.3881C371.523 45.5784 371.435 45.7568 371.315 45.9131C371.195 46.0694 371.046 46.2005 370.875 46.299L365.245 49.549L363.745 46.95ZM350.755 54.45L345.125 57.7C344.78 57.8989 344.529 58.2266 344.426 58.6109C344.323 58.9953 344.377 59.4049 344.576 59.7495C344.774 60.0941 345.102 60.3457 345.486 60.4487C345.871 60.5518 346.28 60.4979 346.625 60.299L352.255 57.049" fill="#5C9FFF"/>
<path d="M350.755 54.45L345.125 57.7C344.78 57.8989 344.529 58.2266 344.426 58.6109C344.323 58.9953 344.377 59.4049 344.576 59.7495C344.774 60.0941 345.102 60.3457 345.486 60.4487C345.871 60.5518 346.28 60.4979 346.625 60.299L352.255 57.049M356.5 44.5V38C356.5 37.6022 356.658 37.2206 356.939 36.9393C357.221 36.658 357.602 36.5 358 36.5C358.398 36.5 358.779 36.658 359.061 36.9393C359.342 37.2206 359.5 37.6022 359.5 38V44.5H356.5ZM356.5 59.5V66C356.5 66.3978 356.658 66.7794 356.939 67.0607C357.221 67.342 357.602 67.5 358 67.5C358.398 67.5 358.779 67.342 359.061 67.0607C359.342 66.7794 359.5 66.3978 359.5 66V59.5H356.5ZM363.745 46.95L369.375 43.7C369.546 43.6015 369.734 43.5376 369.929 43.5119C370.125 43.4862 370.323 43.4993 370.514 43.5503C370.704 43.6013 370.882 43.6893 371.039 43.8093C371.195 43.9293 371.326 44.0788 371.425 44.2495C371.523 44.4202 371.587 44.6085 371.613 44.8039C371.638 44.9992 371.625 45.1977 371.574 45.3881C371.523 45.5784 371.435 45.7568 371.315 45.9131C371.195 46.0694 371.046 46.2005 370.875 46.299L365.245 49.549L363.745 46.95Z" stroke="#164798" stroke-linecap="round"/>
<path fill-rule="evenodd" clip-rule="evenodd" d="M365.245 54.451L370.875 57.701C371.047 57.7988 371.198 57.9296 371.319 58.086C371.44 58.2423 371.529 58.4211 371.581 58.612C371.633 58.8029 371.647 59.0022 371.621 59.1983C371.596 59.3945 371.532 59.5837 371.433 59.755C371.334 59.9263 371.202 60.0764 371.045 60.1966C370.888 60.3167 370.708 60.4046 370.517 60.4552C370.326 60.5057 370.126 60.518 369.93 60.4912C369.734 60.4644 369.546 60.3991 369.375 60.299L363.745 57.049L365.245 54.451ZM352.255 46.951L346.625 43.701C346.281 43.5053 345.873 43.4536 345.491 43.5574C345.108 43.6612 344.783 43.912 344.585 44.255C344.387 44.598 344.332 45.0055 344.433 45.3884C344.535 45.7714 344.783 46.0987 345.125 46.299L350.755 49.549" fill="#5C9FFF"/>
<path d="M352.255 46.951L346.625 43.701C346.281 43.5053 345.873 43.4536 345.491 43.5574C345.108 43.6612 344.783 43.912 344.585 44.255C344.387 44.598 344.332 45.0055 344.433 45.3884C344.535 45.7714 344.783 46.0987 345.125 46.299L350.755 49.549M365.245 54.451L370.875 57.701C371.047 57.7988 371.198 57.9296 371.319 58.086C371.44 58.2423 371.529 58.4211 371.581 58.612C371.633 58.8029 371.647 59.0022 371.621 59.1983C371.596 59.3945 371.532 59.5837 371.433 59.755C371.334 59.9263 371.202 60.0764 371.045 60.1966C370.888 60.3167 370.708 60.4046 370.517 60.4552C370.326 60.5057 370.126 60.518 369.93 60.4912C369.734 60.4644 369.546 60.3991 369.375 60.299L363.745 57.049L365.245 54.451Z" stroke="#164798" stroke-linecap="round"/>
<path fill-rule="evenodd" clip-rule="evenodd" d="M388 86.5H330C329.409 86.4992 328.824 86.6153 328.277 86.8415C327.731 87.0677 327.235 87.3995 326.818 87.818C326.4 88.2354 326.068 88.7314 325.841 89.2775C325.615 89.8236 325.499 90.4089 325.5 91V110C325.5 111.243 326.004 112.368 326.818 113.182C327.235 113.6 327.731 113.932 328.277 114.159C328.824 114.385 329.409 114.501 330 114.5H388C388.591 114.501 389.176 114.385 389.723 114.159C390.269 113.932 390.765 113.6 391.182 113.182C391.6 112.765 391.932 112.269 392.159 111.723C392.385 111.176 392.501 110.591 392.5 110V91C392.501 90.4089 392.385 89.8236 392.159 89.2775C391.932 88.7314 391.6 88.2354 391.182 87.818C390.765 87.3995 390.269 87.0677 389.723 86.8415C389.176 86.6153 388.591 86.4992 388 86.5Z" fill="#5C9FFF" stroke="#164798" stroke-linecap="round"/>
<path fill-rule="evenodd" clip-rule="evenodd" d="M340.5 94.5H336.5V98.5H332.5V102.5H336.5V106.5H340.5V102.5H344.5V98.5H340.5V94.5Z" fill="white" stroke="#164798" stroke-linecap="round"/>
<path d="M351 103.5H384M351 97.5H372H351Z" stroke="#164798"/>
<path fill-rule="evenodd" clip-rule="evenodd" d="M314.5 64.5C312.661 64.4975 310.84 64.8584 309.141 65.562C307.442 66.2656 305.899 67.2981 304.6 68.6C303.298 69.8987 302.266 71.4419 301.562 73.1408C300.858 74.8398 300.497 76.6611 300.5 78.5C300.5 82.366 302.067 85.866 304.6 88.4C305.899 89.702 307.442 90.7344 309.141 91.438C310.84 92.1416 312.661 92.5025 314.5 92.5V64.5Z" fill="#D6DBE4" stroke="#BBC4D3"/>
<path d="M383 20.5H393M383 12.5H393H383ZM383 16.5H393H383Z" stroke="#D6DBE4"/>
<path d="M332 144.5H363M332 128.5H384H332ZM332 136.5H384H332Z" stroke="#164798"/>
<path fill-rule="evenodd" clip-rule="evenodd" d="M241 0.50001H96C92.824 0.50001 89.95 1.78701 87.868 3.86801C86.7986 4.93476 85.9505 6.20233 85.3725 7.5979C84.7945 8.99346 84.498 10.4895 84.5 12V207.5H252.5V12C252.5 8.82401 251.213 5.95001 249.132 3.86801C248.065 2.79856 246.798 1.95046 245.402 1.37247C244.007 0.794473 242.511 0.497974 241 0.50001Z" fill="white" stroke="#D6DBE4"/>
<path fill-rule="evenodd" clip-rule="evenodd" d="M241 0.50001H96C92.824 0.50001 89.95 1.78701 87.868 3.86801C86.7986 4.93476 85.9505 6.20233 85.3725 7.5979C84.7945 8.99346 84.498 10.4895 84.5 12V23.5H252.5V12C252.5 8.82401 251.213 5.95001 249.132 3.86801C248.065 2.79856 246.798 1.95046 245.402 1.37247C244.007 0.794473 242.511 0.497974 241 0.50001Z" fill="#EAEEF2" stroke="#D6DBE4"/>
<path fill-rule="evenodd" clip-rule="evenodd" d="M252.5 64.5C256.366 64.5 259.866 66.067 262.4 68.6C263.702 69.8987 264.734 71.4418 265.438 73.1408C266.142 74.8398 266.503 76.6611 266.5 78.5C266.5 82.366 264.933 85.866 262.4 88.4C261.101 89.7019 259.558 90.7344 257.859 91.438C256.16 92.1416 254.339 92.5025 252.5 92.5V64.5Z" fill="#D6DBE4" stroke="#BBC4D3"/>
<path fill-rule="evenodd" clip-rule="evenodd" d="M118 47.5H109C108.409 47.4992 107.824 47.6153 107.277 47.8415C106.731 48.0677 106.235 48.3995 105.818 48.818C105.4 49.2354 105.068 49.7314 104.841 50.2775C104.615 50.8236 104.499 51.4089 104.5 52C104.5 53.243 105.004 54.368 105.818 55.182C106.235 55.6005 106.731 55.9324 107.277 56.1585C107.824 56.3847 108.409 56.5008 109 56.5H118C118.591 56.5008 119.176 56.3847 119.723 56.1585C120.269 55.9324 120.765 55.6005 121.182 55.182C121.6 54.7646 121.932 54.2686 122.159 53.7225C122.385 53.1765 122.501 52.5911 122.5 52C122.501 51.4089 122.385 50.8236 122.159 50.2775C121.932 49.7314 121.6 49.2354 121.182 48.818C120.765 48.3995 120.269 48.0677 119.723 47.8415C119.176 47.6153 118.591 47.4992 118 47.5ZM166 47.5H132C131.409 47.4992 130.824 47.6153 130.277 47.8415C129.731 48.0677 129.235 48.3995 128.818 48.818C128.4 49.2354 128.068 49.7314 127.841 50.2775C127.615 50.8236 127.499 51.4089 127.5 52C127.5 53.243 128.004 54.368 128.818 55.182C129.235 55.6005 129.731 55.9324 130.277 56.1585C130.824 56.3847 131.409 56.5008 132 56.5H166C166.591 56.5008 167.176 56.3847 167.723 56.1585C168.269 55.9324 168.765 55.6005 169.182 55.182C169.6 54.7646 169.932 54.2686 170.159 53.7225C170.385 53.1765 170.501 52.5911 170.5 52C170.501 51.4089 170.385 50.8236 170.159 50.2775C169.932 49.7314 169.6 49.2354 169.182 48.818C168.765 48.3995 168.269 48.0677 167.723 47.8415C167.176 47.6153 166.591 47.4992 166 47.5ZM226 47.5H180C179.409 47.4992 178.824 47.6153 178.277 47.8415C177.731 48.0677 177.235 48.3995 176.818 48.818C176.4 49.2354 176.068 49.7314 175.841 50.2775C175.615 50.8236 175.499 51.4089 175.5 52C175.5 53.243 176.004 54.368 176.818 55.182C177.235 55.6005 177.731 55.9324 178.277 56.1585C178.824 56.3847 179.409 56.5008 180 56.5H226C226.591 56.5008 227.176 56.3847 227.723 56.1585C228.269 55.9324 228.765 55.6005 229.182 55.182C229.6 54.7646 229.932 54.2686 230.159 53.7225C230.385 53.1765 230.501 52.5911 230.5 52C230.501 51.4089 230.385 50.8236 230.159 50.2775C229.932 49.7314 229.6 49.2354 229.182 48.818C228.765 48.3995 228.269 48.0677 227.723 47.8415C227.176 47.6153 226.591 47.4992 226 47.5ZM150 65.5H109C108.409 65.4992 107.824 65.6153 107.277 65.8415C106.731 66.0677 106.235 66.3995 105.818 66.818C105.4 67.2354 105.068 67.7314 104.841 68.2775C104.615 68.8236 104.499 69.4089 104.5 70C104.5 71.243 105.004 72.368 105.818 73.182C106.235 73.6005 106.731 73.9324 107.277 74.1585C107.824 74.3847 108.409 74.5008 109 74.5H150C150.591 74.5008 151.176 74.3847 151.723 74.1585C152.269 73.9324 152.765 73.6005 153.182 73.182C153.6 72.7646 153.932 72.2686 154.159 71.7225C154.385 71.1765 154.501 70.5911 154.5 70C154.501 69.4089 154.385 68.8236 154.159 68.2775C153.932 67.7314 153.6 67.2354 153.182 66.818C152.765 66.3995 152.269 66.0677 151.723 65.8415C151.176 65.6153 150.591 65.4992 150 65.5ZM179 65.5H164C163.409 65.4992 162.824 65.6153 162.277 65.8415C161.731 66.0677 161.235 66.3995 160.818 66.818C160.4 67.2354 160.068 67.7314 159.841 68.2775C159.615 68.8236 159.499 69.4089 159.5 70C159.5 71.243 160.004 72.368 160.818 73.182C161.235 73.6005 161.731 73.9324 162.277 74.1585C162.824 74.3847 163.409 74.5008 164 74.5H179C179.591 74.5008 180.176 74.3847 180.723 74.1585C181.269 73.9324 181.765 73.6005 182.182 73.182C182.6 72.7646 182.932 72.2686 183.159 71.7225C183.385 71.1765 183.501 70.5911 183.5 70C183.501 69.4089 183.385 68.8236 183.159 68.2775C182.932 67.7314 182.6 67.2354 182.182 66.818C181.765 66.3995 181.269 66.0677 180.723 65.8415C180.176 65.6153 179.591 65.4992 179 65.5ZM214 65.5H193C192.409 65.4992 191.824 65.6153 191.277 65.8415C190.731 66.0677 190.235 66.3995 189.818 66.818C189.4 67.2354 189.068 67.7314 188.841 68.2775C188.615 68.8236 188.499 69.4089 188.5 70C188.5 71.243 189.004 72.368 189.818 73.182C190.235 73.6005 190.731 73.9324 191.277 74.1585C191.824 74.3847 192.409 74.5008 193 74.5H214C214.591 74.5008 215.176 74.3847 215.723 74.1585C216.269 73.9324 216.765 73.6005 217.182 73.182C217.6 72.7646 217.932 72.2686 218.159 71.7225C218.385 71.1765 218.501 70.5911 218.5 70C218.501 69.4089 218.385 68.8236 218.159 68.2775C217.932 67.7314 217.6 67.2354 217.182 66.818C216.765 66.3995 216.269 66.0677 215.723 65.8415C215.176 65.6153 214.591 65.4992 214 65.5ZM130 83.5H109C108.409 83.4992 107.824 83.6153 107.277 83.8415C106.731 84.0676 106.235 84.3995 105.818 84.818C105.4 85.2354 105.068 85.7314 104.841 86.2775C104.615 86.8236 104.499 87.4089 104.5 88C104.5 89.243 105.004 90.368 105.818 91.182C106.235 91.6005 106.731 91.9324 107.277 92.1585C107.824 92.3847 108.409 92.5008 109 92.5H130C130.591 92.5008 131.176 92.3847 131.723 92.1585C132.269 91.9324 132.765 91.6005 133.182 91.182C133.6 90.7646 133.932 90.2686 134.159 89.7225C134.385 89.1765 134.501 88.5911 134.5 88C134.501 87.4089 134.385 86.8236 134.159 86.2775C133.932 85.7314 133.6 85.2354 133.182 84.818C132.765 84.3995 132.269 84.0676 131.723 83.8415C131.176 83.6153 130.591 83.4992 130 83.5ZM191 83.5H144C143.409 83.4992 142.824 83.6153 142.277 83.8415C141.731 84.0676 141.235 84.3995 140.818 84.818C140.4 85.2354 140.068 85.7314 139.841 86.2775C139.615 86.8236 139.499 87.4089 139.5 88C139.5 89.243 140.004 90.368 140.818 91.182C141.235 91.6005 141.731 91.9324 142.277 92.1585C142.824 92.3847 143.409 92.5008 144 92.5H191C191.591 92.5008 192.176 92.3847 192.723 92.1585C193.269 91.9324 193.765 91.6005 194.182 91.182C194.6 90.7646 194.932 90.2686 195.159 89.7225C195.385 89.1765 195.501 88.5911 195.5 88C195.501 87.4089 195.385 86.8236 195.159 86.2775C194.932 85.7314 194.6 85.2354 194.182 84.818C193.765 84.3995 193.269 84.0676 192.723 83.8415C192.176 83.6153 191.591 83.4992 191 83.5ZM229 83.5H205C204.409 83.4992 203.824 83.6153 203.277 83.8415C202.731 84.0676 202.235 84.3995 201.818 84.818C201.4 85.2354 201.068 85.7314 200.841 86.2775C200.615 86.8236 200.499 87.4089 200.5 88C200.5 89.243 201.004 90.368 201.818 91.182C202.235 91.6005 202.731 91.9324 203.277 92.1585C203.824 92.3847 204.409 92.5008 205 92.5H229C229.591 92.5008 230.176 92.3847 230.723 92.1585C231.269 91.9324 231.765 91.6005 232.182 91.182C232.6 90.7646 232.932 90.2686 233.159 89.7225C233.385 89.1765 233.501 88.5911 233.5 88C233.501 87.4089 233.385 86.8236 233.159 86.2775C232.932 85.7314 232.6 85.2354 232.182 84.818C231.765 84.3995 231.269 84.0676 230.723 83.8415C230.176 83.6153 229.591 83.4992 229 83.5ZM135 137.5H109C108.409 137.499 107.824 137.615 107.277 137.841C106.731 138.068 106.235 138.4 105.818 138.818C105.4 139.235 105.068 139.731 104.841 140.277C104.615 140.824 104.499 141.409 104.5 142C104.5 143.243 105.004 144.368 105.818 145.182C106.235 145.6 106.731 145.932 107.277 146.159C107.824 146.385 108.409 146.501 109 146.5H135C135.591 146.501 136.176 146.385 136.723 146.159C137.269 145.932 137.765 145.6 138.182 145.182C138.6 144.765 138.932 144.269 139.159 143.723C139.385 143.176 139.501 142.591 139.5 142C139.501 141.409 139.385 140.824 139.159 140.277C138.932 139.731 138.6 139.235 138.182 138.818C137.765 138.4 137.269 138.068 136.723 137.841C136.176 137.615 135.591 137.499 135 137.5ZM172 137.5H149C148.409 137.499 147.824 137.615 147.277 137.841C146.731 138.068 146.235 138.4 145.818 138.818C145.4 139.235 145.068 139.731 144.841 140.277C144.615 140.824 144.499 141.409 144.5 142C144.5 143.243 145.004 144.368 145.818 145.182C146.235 145.6 146.731 145.932 147.277 146.159C147.824 146.385 148.409 146.501 149 146.5H172C172.591 146.501 173.176 146.385 173.723 146.159C174.269 145.932 174.765 145.6 175.182 145.182C175.6 144.765 175.932 144.269 176.159 143.723C176.385 143.176 176.501 142.591 176.5 142C176.501 141.409 176.385 140.824 176.159 140.277C175.932 139.731 175.6 139.235 175.182 138.818C174.765 138.4 174.269 138.068 173.723 137.841C173.176 137.615 172.591 137.499 172 137.5ZM219 137.5H186C185.409 137.499 184.824 137.615 184.277 137.841C183.731 138.068 183.235 138.4 182.818 138.818C182.4 139.235 182.068 139.731 181.841 140.277C181.615 140.824 181.499 141.409 181.5 142C181.5 143.243 182.004 144.368 182.818 145.182C183.235 145.6 183.731 145.932 184.277 146.159C184.824 146.385 185.409 146.501 186 146.5H219C219.591 146.501 220.176 146.385 220.723 146.159C221.269 145.932 221.765 145.6 222.182 145.182C222.6 144.765 222.932 144.269 223.159 143.723C223.385 143.176 223.501 142.591 223.5 142C223.501 141.409 223.385 140.824 223.159 140.277C222.932 139.731 222.6 139.235 222.182 138.818C221.765 138.4 221.269 138.068 220.723 137.841C220.176 137.615 219.591 137.499 219 137.5ZM117 155.5H109C108.409 155.499 107.824 155.615 107.277 155.841C106.731 156.068 106.235 156.4 105.818 156.818C105.4 157.235 105.068 157.731 104.841 158.277C104.615 158.824 104.499 159.409 104.5 160C104.5 161.243 105.004 162.368 105.818 163.182C106.235 163.6 106.731 163.932 107.277 164.159C107.824 164.385 108.409 164.501 109 164.5H117C117.591 164.501 118.176 164.385 118.723 164.159C119.269 163.932 119.765 163.6 120.182 163.182C120.6 162.765 120.932 162.269 121.159 161.723C121.385 161.176 121.501 160.591 121.5 160C121.501 159.409 121.385 158.824 121.159 158.277C120.932 157.731 120.6 157.235 120.182 156.818C119.765 156.4 119.269 156.068 118.723 155.841C118.176 155.615 117.591 155.499 117 155.5ZM152 155.5H131C130.409 155.499 129.824 155.615 129.277 155.841C128.731 156.068 128.235 156.4 127.818 156.818C127.4 157.235 127.068 157.731 126.841 158.277C126.615 158.824 126.499 159.409 126.5 160C126.5 161.243 127.004 162.368 127.818 163.182C128.235 163.6 128.731 163.932 129.277 164.159C129.824 164.385 130.409 164.501 131 164.5H152C152.591 164.501 153.176 164.385 153.723 164.159C154.269 163.932 154.765 163.6 155.182 163.182C155.6 162.765 155.932 162.269 156.159 161.723C156.385 161.176 156.501 160.591 156.5 160C156.501 159.409 156.385 158.824 156.159 158.277C155.932 157.731 155.6 157.235 155.182 156.818C154.765 156.4 154.269 156.068 153.723 155.841C153.176 155.615 152.591 155.499 152 155.5ZM199 155.5H166C165.409 155.499 164.824 155.615 164.277 155.841C163.731 156.068 163.235 156.4 162.818 156.818C162.4 157.235 162.068 157.731 161.841 158.277C161.615 158.824 161.499 159.409 161.5 160C161.5 161.243 162.004 162.368 162.818 163.182C163.235 163.6 163.731 163.932 164.277 164.159C164.824 164.385 165.409 164.501 166 164.5H199C199.591 164.501 200.176 164.385 200.723 164.159C201.269 163.932 201.765 163.6 202.182 163.182C202.6 162.765 202.932 162.269 203.159 161.723C203.385 161.176 203.501 160.591 203.5 160C203.501 159.409 203.385 158.824 203.159 158.277C202.932 157.731 202.6 157.235 202.182 156.818C201.765 156.4 201.269 156.068 200.723 155.841C200.176 155.615 199.591 155.499 199 155.5ZM117 173.5H109C108.409 173.499 107.824 173.615 107.277 173.841C106.731 174.068 106.235 174.4 105.818 174.818C105.4 175.235 105.068 175.731 104.841 176.277C104.615 176.824 104.499 177.409 104.5 178C104.5 179.243 105.004 180.368 105.818 181.182C106.235 181.6 106.731 181.932 107.277 182.159C107.824 182.385 108.409 182.501 109 182.5H117C117.591 182.501 118.176 182.385 118.723 182.159C119.269 181.932 119.765 181.6 120.182 181.182C120.6 180.765 120.932 180.269 121.159 179.723C121.385 179.176 121.501 178.591 121.5 178C121.501 177.409 121.385 176.824 121.159 176.277C120.932 175.731 120.6 175.235 120.182 174.818C119.765 174.4 119.269 174.068 118.723 173.841C118.176 173.615 117.591 173.499 117 173.5ZM162 173.5H131C130.409 173.499 129.824 173.615 129.277 173.841C128.731 174.068 128.235 174.4 127.818 174.818C127.4 175.235 127.068 175.731 126.841 176.277C126.615 176.824 126.499 177.409 126.5 178C126.5 179.243 127.004 180.368 127.818 181.182C128.235 181.6 128.731 181.932 129.277 182.159C129.824 182.385 130.409 182.501 131 182.5H162C162.591 182.501 163.176 182.385 163.723 182.159C164.269 181.932 164.765 181.6 165.182 181.182C165.6 180.765 165.932 180.269 166.159 179.723C166.385 179.176 166.501 178.591 166.5 178C166.501 177.409 166.385 176.824 166.159 176.277C165.932 175.731 165.6 175.235 165.182 174.818C164.765 174.4 164.269 174.068 163.723 173.841C163.176 173.615 162.591 173.499 162 173.5ZM209 173.5H176C175.409 173.499 174.824 173.615 174.277 173.841C173.731 174.068 173.235 174.4 172.818 174.818C172.4 175.235 172.068 175.731 171.841 176.277C171.615 176.824 171.499 177.409 171.5 178C171.5 179.243 172.004 180.368 172.818 181.182C173.235 181.6 173.731 181.932 174.277 182.159C174.824 182.385 175.409 182.501 176 182.5H209C209.591 182.501 210.176 182.385 210.723 182.159C211.269 181.932 211.765 181.6 212.182 181.182C212.6 180.765 212.932 180.269 213.159 179.723C213.385 179.176 213.501 178.591 213.5 178C213.501 177.409 213.385 176.824 213.159 176.277C212.932 175.731 212.6 175.235 212.182 174.818C211.765 174.4 211.269 174.068 210.723 173.841C210.176 173.615 209.591 173.499 209 173.5ZM144 101.5H109C108.409 101.499 107.824 101.615 107.277 101.841C106.731 102.068 106.235 102.4 105.818 102.818C105.4 103.235 105.068 103.731 104.841 104.277C104.615 104.824 104.499 105.409 104.5 106C104.5 107.243 105.004 108.368 105.818 109.182C106.235 109.6 106.731 109.932 107.277 110.159C107.824 110.385 108.409 110.501 109 110.5H144C144.591 110.501 145.176 110.385 145.723 110.159C146.269 109.932 146.765 109.6 147.182 109.182C147.6 108.765 147.932 108.269 148.159 107.723C148.385 107.176 148.501 106.591 148.5 106C148.501 105.409 148.385 104.824 148.159 104.277C147.932 103.731 147.6 103.235 147.182 102.818C146.765 102.4 146.269 102.068 145.723 101.841C145.176 101.615 144.591 101.499 144 101.5ZM123 119.5H109C108.409 119.499 107.824 119.615 107.277 119.841C106.731 120.068 106.235 120.4 105.818 120.818C105.4 121.235 105.068 121.731 104.841 122.277C104.615 122.824 104.499 123.409 104.5 124C104.5 125.243 105.004 126.368 105.818 127.182C106.235 127.6 106.731 127.932 107.277 128.159C107.824 128.385 108.409 128.501 109 128.5H123C123.591 128.501 124.176 128.385 124.723 128.159C125.269 127.932 125.765 127.6 126.182 127.182C126.6 126.765 126.932 126.269 127.159 125.723C127.385 125.176 127.501 124.591 127.5 124C127.501 123.409 127.385 122.824 127.159 122.277C126.932 121.731 126.6 121.235 126.182 120.818C125.765 120.4 125.269 120.068 124.723 119.841C124.176 119.615 123.591 119.499 123 119.5ZM167 119.5H137C136.409 119.499 135.824 119.615 135.277 119.841C134.731 120.068 134.235 120.4 133.818 120.818C133.4 121.235 133.068 121.731 132.841 122.277C132.615 122.824 132.499 123.409 132.5 124C132.5 125.243 133.004 126.368 133.818 127.182C134.235 127.6 134.731 127.932 135.277 128.159C135.824 128.385 136.409 128.501 137 128.5H167C167.591 128.501 168.176 128.385 168.723 128.159C169.269 127.932 169.765 127.6 170.182 127.182C170.6 126.765 170.932 126.269 171.159 125.723C171.385 125.176 171.501 124.591 171.5 124C171.501 123.409 171.385 122.824 171.159 122.277C170.932 121.731 170.6 121.235 170.182 120.818C169.765 120.4 169.269 120.068 168.723 119.841C168.176 119.615 167.591 119.499 167 119.5ZM211 119.5H181C180.409 119.499 179.824 119.615 179.277 119.841C178.731 120.068 178.235 120.4 177.818 120.818C177.4 121.235 177.068 121.731 176.841 122.277C176.615 122.824 176.499 123.409 176.5 124C176.5 125.243 177.004 126.368 177.818 127.182C178.235 127.6 178.731 127.932 179.277 128.159C179.824 128.385 180.409 128.501 181 128.5H211C211.591 128.501 212.176 128.385 212.723 128.159C213.269 127.932 213.765 127.6 214.182 127.182C214.6 126.765 214.932 126.269 215.159 125.723C215.385 125.176 215.501 124.591 215.5 124C215.501 123.409 215.385 122.824 215.159 122.277C214.932 121.731 214.6 121.235 214.182 120.818C213.765 120.4 213.269 120.068 212.723 119.841C212.176 119.615 211.591 119.499 211 119.5ZM176 101.5H158C157.409 101.499 156.824 101.615 156.277 101.841C155.731 102.068 155.235 102.4 154.818 102.818C154.4 103.235 154.068 103.731 153.841 104.277C153.615 104.824 153.499 105.409 153.5 106C153.5 107.243 154.004 108.368 154.818 109.182C155.235 109.6 155.731 109.932 156.277 110.159C156.824 110.385 157.409 110.501 158 110.5H176C176.591 110.501 177.176 110.385 177.723 110.159C178.269 109.932 178.765 109.6 179.182 109.182C179.6 108.765 179.932 108.269 180.159 107.723C180.385 107.176 180.501 106.591 180.5 106C180.501 105.409 180.385 104.824 180.159 104.277C179.932 103.731 179.6 103.235 179.182 102.818C178.765 102.4 178.269 102.068 177.723 101.841C177.176 101.615 176.591 101.499 176 101.5ZM221 101.5H190C189.409 101.499 188.824 101.615 188.277 101.841C187.731 102.068 187.235 102.4 186.818 102.818C186.4 103.235 186.068 103.731 185.841 104.277C185.615 104.824 185.499 105.409 185.5 106C185.5 107.243 186.004 108.368 186.818 109.182C187.235 109.6 187.731 109.932 188.277 110.159C188.824 110.385 189.409 110.501 190 110.5H221C221.591 110.501 222.176 110.385 222.723 110.159C223.269 109.932 223.765 109.6 224.182 109.182C224.6 108.765 224.932 108.269 225.159 107.723C225.385 107.176 225.501 106.591 225.5 106C225.501 105.409 225.385 104.824 225.159 104.277C224.932 103.731 224.6 103.235 224.182 102.818C223.765 102.4 223.269 102.068 222.723 101.841C222.176 101.615 221.591 101.499 221 101.5Z" fill="#F1F4F9" stroke="#E0E6ED"/>
</svg>
