<svg width="24" height="23" viewBox="0 0 24 23" fill="none" xmlns="http://www.w3.org/2000/svg">
<path d="M24 14.101V23H18.856V14.697C18.856 12.611 18.112 11.188 16.25 11.188C14.829 11.188 13.983 12.148 13.61 13.076C13.475 13.407 13.44 13.869 13.44 14.333V23H8.294C8.294 23 8.364 8.938 8.294 7.48H13.439V9.68C13.429 9.697 13.415 9.715 13.406 9.73H13.439V9.68C14.123 8.625 15.344 7.116 18.077 7.116C21.462 7.116 24 9.335 24 14.101ZM2.912 0C1.152 0 0 1.158 0 2.68C0 4.17 1.118 5.364 2.843 5.364H2.878C4.672 5.364 5.788 4.171 5.788 2.681C5.754 1.158 4.672 0 2.912 0ZM0.306 23H5.449V7.48H0.306V23Z" fill="#92A0B6"/>
</svg>
