<svg width="24" height="20" viewBox="0 0 24 20" fill="none" xmlns="http://www.w3.org/2000/svg">
<path d="M24 2.31805C23.163 2.74305 22.186 3.02704 21.21 3.16804C22.256 2.53104 23.023 1.53805 23.442 0.333046C22.465 0.900046 21.419 1.32605 20.302 1.53805C19.5497 0.749817 18.559 0.230944 17.4827 0.0614334C16.4063 -0.108077 15.3041 0.0811881 14.346 0.600046C12.376 1.66605 11.335 3.92505 11.791 6.14505C7.884 5.93305 4.116 4.09004 1.674 0.900045C1.00238 1.99293 0.787586 3.30613 1.076 4.55605C1.36013 5.80157 2.12739 6.88322 3.209 7.56305C2.442 7.56305 1.674 7.42104 0.977 7.06704C1.047 9.40604 2.651 11.461 4.884 11.957C4.186 12.17 3.419 12.17 2.651 12.028C3.349 14.084 5.233 15.501 7.326 15.572C5.302 17.273 2.581 18.053 0 17.628C2.14825 19.0893 4.66772 19.9095 7.26448 19.9931C9.86124 20.0767 12.4282 19.4201 14.666 18.1C19.243 15.406 21.916 10.303 21.558 4.94005C22.535 4.23205 23.372 3.38105 24 2.31805Z" fill="#92A0B6"/>
</svg>
