<svg width="145" height="38" viewBox="0 0 145 38" fill="none" xmlns="http://www.w3.org/2000/svg">
<path fill-rule="evenodd" clip-rule="evenodd" d="M13.55 23.673C14.161 25.933 14.632 28.317 14.736 30.629C14.817 32.423 14.7 34.193 14.04 35.888C13.828 36.431 13.553 36.94 13.138 37.357C12.344 38.155 11.466 38.207 10.694 37.532L10.605 36.147C10.5427 35.3318 10.5307 34.5136 10.569 33.697C10.812 33.586 11.039 33.433 11.252 33.251C12.027 32.587 12.505 31.724 12.8 30.759C13.393 28.815 13.311 26.749 12.953 24.767C13.057 24.562 13.16 24.36 13.263 24.171C13.284 24.131 13.407 23.919 13.551 23.673H13.55ZM43.046 0L39.377 6.093C39.377 6.093 28.44 8.207 21.484 13.335C15.205 17.964 12.62 23.735 12.589 23.792C9.147 30.161 9.849 36.38 9.849 36.38C8.882 34.53 8.318 31.367 8.642 28.424C11.379 3.575 43.045 0 43.045 0H43.046ZM106.628 17.83L110.126 24.931L111.456 22.067L109.49 17.83H113.421L116.775 24.902L119.839 17.83H123.857L116.6 32.969L113.305 26.013L110.009 32.969L102.089 17.829H106.627L106.628 17.83ZM27.822 12.89V17.83H31.29V21.659H27.822V26.363C27.822 28.029 29.325 28.79 31.203 28.79V32.91C26.839 32.91 23.717 30.309 23.717 26.48V21.66H21.52V17.83H23.717V15.902L27.822 12.892V12.89ZM95.434 17.509C99.625 17.509 103.123 20.957 103.123 25.224C103.123 29.432 99.625 32.91 95.433 32.91C91.242 32.91 87.86 29.432 87.86 25.224C87.86 20.957 91.242 17.509 95.434 17.509ZM137.716 17.509C141.329 17.509 144.104 19.963 145.001 22.71L136.849 28.614C137.225 28.76 137.629 28.79 138.063 28.79C139.306 28.79 140.549 28.351 141.213 27.299L144.48 29.842C143.237 31.712 140.665 32.91 138.063 32.91C133.669 32.91 130.143 29.432 130.143 25.224C130.143 20.957 133.525 17.508 137.716 17.508V17.509ZM76.802 10.816V32.59H72.697V31.538C72.061 32.385 70.471 32.911 69.142 32.911C65.152 32.911 61.972 29.433 61.972 25.225C61.972 20.958 65.239 17.509 69.142 17.509C70.442 17.509 72.062 18.153 72.697 18.854V10.817H76.802V10.816ZM36.738 17.83V25.165C36.738 27.299 38.096 28.79 39.744 28.79C41.566 28.79 43.271 27.883 43.271 25.165V17.83H47.347V32.589H43.27V31.536C42.432 32.472 40.582 32.91 39.193 32.91C35.349 32.91 32.632 29.578 32.632 25.516V17.83H36.737H36.738ZM128.638 17.83V32.588H124.534V17.83H128.639H128.638ZM61.666 17.83L55.596 28.643H61.58V32.589H48.774L55.278 21.659H49.641V17.829H61.666V17.83ZM87.525 17.567V21.863C87.1065 21.7199 86.6662 21.6508 86.224 21.659C84.634 21.659 83.275 22.857 83.275 25.224V32.589H79.171V17.829H83.275V18.852C84.172 17.888 85.385 17.508 86.513 17.508C86.86 17.508 87.149 17.508 87.525 17.568V17.567ZM95.433 21.658C93.554 21.658 92.022 23.148 92.022 25.224C92.022 27.328 93.554 28.789 95.432 28.789C97.427 28.789 98.931 27.329 98.931 25.224C98.931 23.148 97.427 21.658 95.433 21.658ZM69.546 21.658C67.666 21.658 66.134 23.148 66.134 25.224C66.134 27.328 67.666 28.79 69.546 28.79C71.453 28.79 72.87 27.328 72.87 25.224C72.87 23.149 71.453 21.659 69.546 21.659V21.658ZM137.716 21.658C135.836 21.658 134.304 23.148 134.304 25.224C134.304 25.574 134.334 25.896 134.42 26.188L139.739 22.36C139.16 21.921 138.496 21.659 137.715 21.659L137.716 21.658ZM0 4.838C1.716 5.679 3.285 6.771 4.74 8.058C7.675 10.656 9.802 13.834 11.379 17.402C11.185 17.723 10.983 18.063 10.81 18.356C8.393 13.89 4.687 10.864 0 9.277V4.838ZM126.543 10.817C127.931 10.817 129.001 11.899 129.001 13.097C129.001 14.383 127.931 15.464 126.543 15.464C125.271 15.464 124.173 14.383 124.173 13.097C124.173 11.927 125.271 10.817 126.543 10.817ZM14.253 5.007C15.244 5.385 15.658 6.225 15.737 7.212C15.856 8.696 15.346 9.967 14.206 10.926C13.503 11.518 12.683 11.763 11.796 11.384C10.886 10.996 10.502 10.201 10.342 9.27C10.31 9.08 10.312 8.884 10.3 8.69C10.33 7.485 10.747 6.444 11.646 5.64C12.396 4.97 13.258 4.628 14.254 5.008L14.253 5.007Z" fill="#7B8BA5"/>
</svg>
