<svg width="139" height="28" viewBox="0 0 139 28" fill="none" xmlns="http://www.w3.org/2000/svg">
<path d="M59.986 9.1321C57.286 9.1321 55.092 11.3261 55.092 13.9501C55.092 16.6951 57.255 18.8871 59.973 18.8941C61.2684 18.8896 62.5093 18.3721 63.424 17.4549C64.3388 16.5377 64.853 15.2955 64.854 14.0001C64.854 11.3341 62.674 9.1451 59.986 9.1321ZM13.975 27.8991C6.30601 27.9001 0.0750122 21.6701 0.0750122 14.0001C0.0760122 6.3321 6.30701 0.100098 13.976 0.100098H27.875V14.0001C27.85 21.6941 21.645 27.9001 13.975 27.9001V27.8991ZM22.652 11.4021H16.573V5.3221H11.351V11.4021H5.27201V16.6231H11.352V22.7031H16.573V16.6231H22.653V11.4021H22.652ZM33.07 5.3221H39.73C44.32 5.3221 48.281 9.3331 48.281 14.0001C48.281 18.6921 44.321 22.7031 39.73 22.7031H33.07V5.3231V5.3221ZM38.62 18.8681C40.31 18.8681 41.395 18.4141 42.328 17.4051C43.135 16.5231 43.589 15.2861 43.589 14.0001C43.589 12.7141 43.135 11.5031 42.328 10.6201C41.42 9.6101 40.335 9.1571 38.62 9.1571H37.586V18.8681H38.62ZM67.326 7.9461C68.7942 9.62061 69.6013 11.7731 69.596 14.0001C69.596 16.9001 68.285 19.5501 66.09 21.2901C64.375 22.6271 62.332 23.2581 59.91 23.2581C54.436 23.2581 50.375 19.2471 50.375 13.8231C50.375 11.1241 51.712 8.4251 53.881 6.7101C55.495 5.4231 57.715 4.7421 59.986 4.7421C62.987 4.7681 65.459 5.8271 67.326 7.9461ZM79.081 15.8921L83.294 5.3221H88.187L80.797 22.7021H77.29L70 5.3491H74.919L79.081 15.8931V15.8921ZM94.872 9.1571V12.0571H99.942V15.8921H94.872V18.8941H102.515V22.7031H90.357V5.3231H102.515V9.1571H94.872ZM119.542 22.7031H113.917L109.629 16.0431V22.7031H105.114V5.3231H112.126C114.094 5.3231 115.38 5.8021 116.389 6.8611C117.323 7.8451 117.877 9.2581 117.877 10.6951C117.877 12.2851 117.247 13.7731 116.213 14.6311C115.633 15.1101 115.103 15.3621 114.068 15.5891L119.542 22.7031ZM110.462 13.1171C111.319 13.1171 111.975 12.9661 112.378 12.6371C112.883 12.2851 113.236 11.5781 113.236 10.9471C113.236 10.3171 112.883 9.6111 112.378 9.2571C111.95 8.9551 111.318 8.7781 110.461 8.7781H109.629V13.1181H110.461L110.462 13.1171ZM126.832 19.6761L125.647 22.7031H120.879L127.539 5.3481H132.458L138.991 22.7031H134.173L133.063 19.6761H126.833H126.832ZM129.986 10.6961L128.094 16.2451H131.852L129.986 10.6951V10.6961ZM59.986 0.126098C61.626 0.126098 63.265 0.378098 64.778 0.858098L63.744 3.7081C61.2981 2.93393 58.6729 2.93393 56.227 3.7081L55.193 0.858098C56.7437 0.370008 58.3603 0.123127 59.986 0.126098Z" fill="#7B8BA5"/>
</svg>
