<svg width="149" height="50" viewBox="0 0 149 50" fill="none" xmlns="http://www.w3.org/2000/svg">
<path fill-rule="evenodd" clip-rule="evenodd" d="M0 40.912V40.865C0 36.39 3.426 32.598 8.245 32.598C11.032 32.598 12.745 33.373 14.389 34.767L12.609 36.893C11.374 35.841 10.165 35.178 8.131 35.178C5.185 35.178 2.947 37.758 2.947 40.82V40.865C2.947 44.154 5.117 46.575 8.382 46.575C9.89 46.575 11.26 46.098 12.242 45.365V42.373H8.153V39.93H14.961V46.644C13.384 47.991 11.123 49.134 8.291 49.134C3.288 49.133 0 45.57 0 40.911V40.912ZM17.082 48.86H19.847V32.186H17.082V48.86ZM31.518 42.899V42.854C31.518 40.728 29.988 38.97 27.818 38.97C25.602 38.97 24.185 40.705 24.185 42.807V42.854C24.185 44.954 25.716 46.734 27.863 46.734C30.102 46.734 31.518 44.976 31.518 42.899ZM21.423 42.899V42.854C21.423 39.404 24.163 36.549 27.863 36.549C31.563 36.549 34.281 39.359 34.281 42.807V42.854C34.281 46.28 31.541 49.134 27.818 49.134C24.14 49.134 21.423 46.324 21.423 42.899ZM45.38 42.853V42.807C45.38 40.477 43.804 38.947 41.932 38.947C40.059 38.947 38.414 40.5 38.414 42.807V42.853C38.414 45.183 40.059 46.713 41.932 46.713C43.827 46.713 45.38 45.228 45.38 42.853ZM38.483 46.987V48.861H35.72V32.187H38.484V38.81C39.374 37.553 40.631 36.549 42.573 36.549C45.428 36.549 48.191 38.809 48.191 42.807V42.853C48.191 46.85 45.451 49.111 42.573 49.111C40.586 49.111 39.329 48.107 38.484 46.987H38.483ZM57.096 43.812C56.388 43.538 55.406 43.332 54.333 43.332C52.596 43.332 51.569 44.039 51.569 45.205V45.25C51.569 46.392 52.596 47.033 53.898 47.033C55.727 47.033 57.096 46.005 57.096 44.497V43.812ZM57.026 48.86V47.375C56.206 48.359 54.949 49.112 53.122 49.112C50.838 49.112 48.828 47.81 48.828 45.389V45.342C48.828 42.67 50.906 41.391 53.715 41.391C55.177 41.391 56.114 41.596 57.051 41.892V41.665C57.051 39.999 55.999 39.085 54.081 39.085C52.733 39.085 51.728 39.381 50.631 39.838L49.878 37.621C51.204 37.03 52.506 36.617 54.468 36.617C58.033 36.617 59.768 38.491 59.768 41.712V48.86H57.027H57.026ZM61.847 48.86H64.61V32.186H61.847V48.86ZM66.88 32.19H78.73V33.334H68.117V39.877H77.661V41.019H68.117V47.706H78.85V48.848H66.88V32.19ZM84.964 42.661L80.18 36.711H81.632L85.725 41.853L89.817 36.711H91.222L86.44 42.638L91.413 48.85H89.96L85.676 43.446L81.392 48.85H79.99L84.964 42.661ZM91.604 42.828V42.78C91.604 39.378 94.317 36.427 97.791 36.427C100.075 36.427 101.502 37.473 102.646 38.664L101.812 39.522C100.765 38.451 99.575 37.522 97.767 37.522C95.007 37.522 92.865 39.83 92.865 42.733V42.78C92.865 45.707 95.078 48.04 97.862 48.04C99.575 48.04 100.909 47.159 101.932 46.017L102.741 46.73C101.502 48.135 100.028 49.133 97.791 49.133C94.293 49.133 91.604 46.23 91.604 42.828ZM113.474 42.209C113.308 39.759 111.904 37.497 109.119 37.497C106.716 37.497 104.859 39.522 104.645 42.209H113.475H113.474ZM103.408 42.804V42.757C103.408 39.235 105.882 36.427 109.166 36.427C112.569 36.427 114.736 39.187 114.736 42.78C114.736 42.994 114.736 43.067 114.711 43.255H104.645C104.86 46.28 107.025 48.039 109.405 48.039C111.285 48.039 112.569 47.205 113.569 46.136L114.379 46.849C113.142 48.183 111.689 49.133 109.359 49.133C106.169 49.133 103.409 46.588 103.409 42.803L103.408 42.804ZM116.876 48.85H118.04V31.476H116.876V48.85ZM140.577 32.218C139.58 32.8127 138.551 33.3519 137.495 33.833C137.54 34.963 137.512 36.149 137.403 37.384C138.465 36.9433 139.502 36.4432 140.508 35.886C140.611 34.6662 140.634 33.4409 140.577 32.218ZM135.775 29.459C135.498 29.589 135.212 29.721 134.925 29.85C134.64 29.978 134.351 30.1 134.055 30.226C133.761 30.347 133.465 30.466 133.164 30.584C132.864 30.704 132.562 30.817 132.251 30.93C132.321 31.24 132.383 31.544 132.445 31.847C132.503 32.15 132.559 32.452 132.609 32.752C132.662 33.052 132.709 33.35 132.756 33.646C132.799 33.942 132.84 34.238 132.876 34.528C133.185 34.426 133.493 34.317 133.795 34.21C134.393 33.9935 134.986 33.7651 135.575 33.525C135.865 33.405 136.151 33.288 136.433 33.163C136.366 32.5491 136.277 31.9377 136.167 31.33C136.056 30.7024 135.925 30.0784 135.775 29.459ZM129.877 26.554C129.289 26.7729 128.697 26.9783 128.1 27.17C127.803 27.266 127.506 27.355 127.211 27.445C126.913 27.533 126.619 27.618 126.322 27.699L126.529 28.539L126.727 29.387C126.864 29.9747 126.994 30.5641 127.116 31.155C127.121 31.175 127.124 31.194 127.127 31.213C127.134 31.233 127.137 31.25 127.14 31.271C127.145 31.292 127.15 31.31 127.151 31.333C127.463 31.25 127.772 31.17 128.085 31.084C129.026 30.8233 129.959 30.5338 130.882 30.216C130.879 30.199 130.874 30.178 130.872 30.156C130.867 30.137 130.861 30.116 130.858 30.097C130.851 30.0782 130.846 30.0588 130.842 30.039C130.837 30.019 130.834 29.999 130.827 29.981C130.546 28.829 130.23 27.6861 129.877 26.554ZM126.242 32.686C125.622 32.829 125 32.957 124.374 33.07C124.064 33.129 123.753 33.1834 123.442 33.233C123.131 33.286 122.822 33.334 122.513 33.379C122.562 33.678 122.608 33.973 122.653 34.263C122.705 34.555 122.75 34.845 122.793 35.133C122.843 35.418 122.887 35.702 122.928 35.983C122.973 36.265 123.016 36.543 123.058 36.821C123.371 36.776 123.681 36.729 123.995 36.681C124.622 36.5839 125.248 36.4752 125.871 36.355C126.186 36.295 126.501 36.233 126.813 36.166C126.775 35.887 126.733 35.606 126.687 35.318C126.645 35.0306 126.6 34.7436 126.552 34.457C126.504 34.1635 126.455 33.8701 126.404 33.577C126.35 33.284 126.299 32.989 126.242 32.686ZM131.859 35.927C131.231 36.1174 130.6 36.2951 129.965 36.46C129.651 36.543 129.336 36.623 129.02 36.702C128.707 36.7779 128.393 36.8513 128.078 36.922C128.144 37.4641 128.201 38.0071 128.249 38.551C128.272 38.817 128.293 39.08 128.309 39.341C128.329 39.602 128.346 39.861 128.359 40.114C128.662 40.051 128.964 39.984 129.269 39.915C130.188 39.7076 131.102 39.4762 132.009 39.221C132.014 38.959 132.01 38.694 132.007 38.421C132.003 38.1479 131.994 37.8748 131.98 37.602C131.967 37.332 131.954 37.054 131.931 36.772C131.911 36.492 131.888 36.212 131.859 35.927ZM141.069 19.416C140.899 19.606 140.725 19.796 140.539 19.986C140.358 20.1747 140.172 20.3594 139.983 20.54C139.791 20.721 139.596 20.905 139.391 21.08C139.19 21.258 138.985 21.432 138.773 21.608C138.915 21.89 139.053 22.178 139.181 22.466C139.312 22.758 139.441 23.052 139.564 23.346C139.809 23.9424 140.035 24.5468 140.24 25.158C140.248 25.1787 140.254 25.1997 140.26 25.221C140.27 25.239 140.277 25.263 140.283 25.284C140.29 25.304 140.298 25.324 140.304 25.347C140.309 25.3681 140.316 25.3886 140.325 25.408C140.549 25.2418 140.769 25.0714 140.986 24.897C141.206 24.724 141.416 24.548 141.623 24.371C141.83 24.191 142.033 24.013 142.231 23.829C142.425 23.6467 142.616 23.4613 142.804 23.273C142.796 23.25 142.788 23.231 142.781 23.208C142.773 23.1872 142.766 23.1658 142.761 23.144C142.751 23.124 142.744 23.102 142.735 23.081C142.727 23.058 142.72 23.034 142.712 23.015C142.599 22.6996 142.478 22.3869 142.351 22.077C142.224 21.7715 142.093 21.4682 141.956 21.167C141.816 20.867 141.673 20.573 141.526 20.279C141.38 19.989 141.226 19.7 141.069 19.416ZM137.999 22.218C137.778 22.382 137.554 22.547 137.325 22.711C137.099 22.869 136.862 23.029 136.626 23.185C136.146 23.5026 135.656 23.8044 135.156 24.09C135.393 24.6567 135.612 25.2303 135.815 25.81C135.916 26.102 136.016 26.394 136.112 26.687C136.223 27.0234 136.327 27.3618 136.426 27.702L136.442 27.765C136.449 27.7845 136.454 27.8046 136.458 27.825C136.989 27.5473 137.511 27.2539 138.024 26.945C138.278 26.792 138.526 26.639 138.771 26.482C139.016 26.324 139.257 26.162 139.492 26.003L139.472 25.94L139.452 25.877C139.447 25.857 139.437 25.835 139.431 25.815C139.425 25.794 139.42 25.773 139.411 25.752C139.312 25.4478 139.207 25.1455 139.097 24.845C138.778 23.9506 138.412 23.0737 138 22.218H137.999ZM145.653 21.426C145.401 21.8473 145.127 22.2552 144.833 22.648C144.679 22.845 144.524 23.045 144.36 23.238C144.194 23.4347 144.024 23.628 143.85 23.818C143.952 24.161 144.044 24.505 144.13 24.847C144.21 25.193 144.284 25.537 144.352 25.882C144.42 26.229 144.474 26.572 144.522 26.919C144.57 27.266 144.61 27.611 144.639 27.956C144.993 27.616 145.328 27.2568 145.642 26.88C145.946 26.5233 146.229 26.1497 146.49 25.761C146.432 25.0277 146.332 24.2983 146.193 23.576C146.124 23.216 146.043 22.856 145.952 22.495C145.863 22.1355 145.763 21.7787 145.653 21.425V21.426ZM143.192 24.493C143.006 24.675 142.81 24.857 142.612 25.04C142.202 25.4026 141.782 25.7528 141.351 26.09C141.129 26.259 140.905 26.425 140.677 26.593C140.767 26.922 140.85 27.251 140.924 27.577C140.998 27.907 141.066 28.237 141.129 28.562C141.246 29.2092 141.338 29.8607 141.405 30.515C141.863 30.2175 142.309 29.9033 142.744 29.573C142.96 29.413 143.169 29.248 143.373 29.085C143.577 28.915 143.774 28.748 143.968 28.578C143.908 27.8913 143.813 27.2081 143.684 26.531C143.555 25.8434 143.39 25.1629 143.192 24.492V24.493ZM147.864 24.08C147.745 24.6884 147.547 25.2787 147.275 25.836C147.184 26.028 147.084 26.216 146.974 26.407C146.983 27.1579 146.947 27.9086 146.864 28.655C146.784 29.4109 146.659 30.1613 146.488 30.902C146.581 30.7575 146.667 30.609 146.747 30.457C146.905 30.1669 147.037 29.8638 147.143 29.551C147.193 29.394 147.24 29.243 147.274 29.085L147.482 28.125C147.611 27.4535 147.708 26.7765 147.774 26.096C147.806 25.757 147.83 25.422 147.844 25.083C147.861 24.749 147.866 24.415 147.864 24.08ZM146.551 27.077C146.424 27.262 146.291 27.443 146.151 27.625C145.711 28.1878 145.227 28.7151 144.704 29.202C144.712 29.549 144.711 29.894 144.701 30.24C144.69 30.585 144.669 30.93 144.64 31.272C144.609 31.6154 144.569 31.9578 144.52 32.299C144.471 32.6411 144.412 32.9816 144.343 33.32C144.673 33.0337 144.991 32.7331 145.295 32.419C145.58 32.1232 145.846 31.8099 146.092 31.481C146.172 31.117 146.242 30.752 146.304 30.386C146.479 29.2916 146.562 28.1843 146.551 27.076V27.077ZM144.037 29.803C143.847 29.97 143.648 30.131 143.443 30.289C143.243 30.452 143.033 30.609 142.821 30.768C142.385 31.086 141.939 31.3899 141.484 31.679C141.51 32.3182 141.506 32.9582 141.473 33.597C141.45 33.917 141.423 34.232 141.393 34.542C141.358 34.857 141.317 35.17 141.269 35.478C141.492 35.348 141.709 35.218 141.921 35.082C142.134 34.952 142.343 34.818 142.545 34.681C142.944 34.4169 143.332 34.1367 143.708 33.841C143.774 33.511 143.828 33.179 143.874 32.842C144.01 31.8351 144.065 30.8187 144.037 29.803ZM97.98 9.47C98.4672 8.9563 98.9802 8.46768 99.517 8.006C99.8 7.763 100.093 7.521 100.403 7.282C100.709 7.042 101.03 6.803 101.364 6.568C101.303 6.853 101.25 7.148 101.204 7.451C101.154 7.758 101.114 8.074 101.084 8.4C101.012 9.0927 100.973 9.78854 100.969 10.485V10.79C100.294 11.2409 99.6396 11.722 99.008 12.232C98.4422 12.6928 97.8998 13.1818 97.383 13.697C97.385 13.669 97.385 13.647 97.388 13.621V13.545L97.393 13.472C97.393 13.445 97.393 13.421 97.396 13.397C97.412 13.034 97.436 12.679 97.469 12.334C97.503 11.987 97.543 11.651 97.595 11.324C97.6876 10.6988 97.8162 10.0794 97.98 9.469V9.47ZM94.592 18.867C94.8366 18.3744 95.116 17.8999 95.428 17.447C95.7746 16.9431 96.1516 16.4609 96.557 16.003C96.5781 16.8304 96.6415 17.6561 96.747 18.477C96.802 18.899 96.863 19.322 96.937 19.751C97.013 20.18 97.097 20.612 97.194 21.046C96.976 21.269 96.771 21.491 96.578 21.714C96.2148 22.1305 95.8806 22.5716 95.578 23.034C95.4382 23.2454 95.3068 23.4623 95.184 23.684C95.094 23.275 95.01 22.867 94.939 22.459C94.7982 21.661 94.6987 20.8563 94.641 20.048C94.6143 19.6548 94.5979 19.261 94.592 18.867ZM102.366 11.425C102.76 11.197 103.163 10.973 103.572 10.759C103.987 10.539 104.41 10.326 104.839 10.122C105.274 9.91261 105.713 9.71191 106.156 9.52C106.606 9.325 107.064 9.138 107.527 8.952C107.567 9.386 107.614 9.825 107.669 10.27C107.781 11.2012 107.915 12.1298 108.069 13.055C108.145 13.536 108.23 14.02 108.322 14.514C107.856 14.683 107.392 14.86 106.934 15.041C106.049 15.3934 105.176 15.7763 104.318 16.189C103.901 16.393 103.493 16.599 103.097 16.81C102.823 15.4541 102.614 14.0859 102.471 12.71C102.429 12.2823 102.394 11.8539 102.366 11.425ZM98.427 21.85C98.9597 21.3909 99.5158 20.9597 100.093 20.558C100.403 20.341 100.721 20.128 101.055 19.915C101.392 19.705 101.74 19.49 102.103 19.283C102.223 19.759 102.345 20.241 102.483 20.72C102.618 21.206 102.763 21.691 102.916 22.18C103.222 23.1713 103.56 24.1525 103.929 25.122C103.269 25.4601 102.622 25.8234 101.99 26.211C101.695 26.393 101.413 26.577 101.139 26.759C100.871 26.945 100.615 27.129 100.368 27.314C100.168 26.856 99.976 26.399 99.792 25.94C99.6133 25.4857 99.4416 25.0286 99.277 24.569C98.9585 23.6737 98.6749 22.7664 98.427 21.849V21.85ZM112.021 5.903C113.029 5.6235 114.047 5.3767 115.071 5.163C115.068 5.136 115.065 5.109 115.06 5.082C115.056 5.05603 115.053 5.03003 115.05 5.004C115.045 4.98 115.042 4.953 115.039 4.928C115.034 4.903 115.032 4.878 115.027 4.851C114.976 4.475 114.927 4.117 114.881 3.767C114.832 3.42 114.791 3.087 114.75 2.765C114.71 2.46056 114.672 2.15589 114.635 1.851L114.539 1.019C113.114 1.3315 111.705 1.71463 110.318 2.167C109.863 2.317 109.413 2.477 108.966 2.643C108.958 2.913 108.953 3.199 108.948 3.493C108.948 3.791 108.953 4.101 108.96 4.422C108.981 5.12003 109.017 5.81753 109.068 6.514L109.074 6.59C109.076 6.615 109.079 6.641 109.079 6.667L109.085 6.745L109.092 6.82C110.058 6.48146 111.035 6.17529 112.021 5.902V5.903ZM116.56 2.416C116.613 2.736 116.664 3.069 116.719 3.414C116.774 3.761 116.83 4.122 116.892 4.498C116.895 4.524 116.902 4.55 116.905 4.575C116.906 4.6 116.911 4.625 116.915 4.651C116.921 4.677 116.924 4.701 116.927 4.729C116.934 4.756 116.937 4.782 116.942 4.808C118.504 4.54471 120.077 4.35318 121.656 4.234C122.182 4.194 122.703 4.164 123.224 4.142C123.217 4.117 123.213 4.088 123.208 4.064L123.19 3.987C123.184 3.961 123.177 3.937 123.172 3.909C123.164 3.884 123.162 3.858 123.155 3.832C123.069 3.462 122.984 3.1 122.9 2.752C122.813 2.408 122.725 2.08 122.642 1.761C122.486 1.18129 122.316 0.605757 122.13 0.035C120.168 0.116958 118.213 0.329427 116.279 0.671C116.322 0.937 116.364 1.211 116.414 1.503L116.559 2.416H116.56ZM124.446 1.723C124.652 2.4076 124.841 3.09751 125.011 3.792C125.017 3.816 125.022 3.844 125.029 3.868L125.049 3.945C125.055 3.971 125.063 3.998 125.067 4.023C125.074 4.04903 125.08 4.07539 125.085 4.102C127.074 4.09205 129.062 4.21801 131.034 4.479C131.024 4.45375 131.016 4.42805 131.009 4.402C130.999 4.377 130.995 4.35 130.985 4.326C130.977 4.302 130.971 4.274 130.963 4.25C130.956 4.224 130.945 4.198 130.938 4.173C130.828 3.81331 130.709 3.45622 130.582 3.102C130.462 2.76 130.337 2.432 130.212 2.116C130.089 1.81298 129.96 1.51258 129.825 1.215C129.696 0.938691 129.562 0.66497 129.422 0.394C128.975 0.330054 128.528 0.273047 128.079 0.223C127.622 0.174 127.164 0.133 126.699 0.098C125.756 0.0331829 124.811 0.000497316 123.865 0C124.076 0.568364 124.27 1.14296 124.447 1.723H124.446ZM132.458 11.616C132.232 9.72363 131.888 7.84729 131.427 5.998C129.435 5.7564 127.429 5.64117 125.422 5.653C125.826 7.53241 126.151 9.42811 126.395 11.335C128.42 11.2885 130.446 11.3824 132.458 11.616ZM131.833 2.386C132.117 3.0595 132.374 3.74441 132.602 4.439C132.612 4.465 132.618 4.491 132.626 4.515L132.652 4.589C132.656 4.616 132.664 4.64226 132.676 4.667C132.685 4.69218 132.693 4.71789 132.699 4.744C133.582 4.90583 134.458 5.10266 135.326 5.334C136.138 5.5522 136.939 5.80645 137.728 6.096L137.702 6.023C137.693 5.99756 137.683 5.97223 137.673 5.947C137.665 5.918 137.653 5.896 137.644 5.872C137.636 5.846 137.628 5.82 137.618 5.796C137.357 5.09966 137.06 4.4174 136.728 3.752C136.427 3.15703 136.092 2.57975 135.725 2.023C134.982 1.72952 134.225 1.47386 133.457 1.257C133.062 1.143 132.657 1.037 132.246 0.939C131.828 0.837529 131.408 0.745837 130.986 0.664C131.302 1.22067 131.585 1.79569 131.833 2.386ZM138.017 4.294C138.362 4.9552 138.668 5.63603 138.934 6.333C138.942 6.359 138.954 6.383 138.964 6.409C138.974 6.433 138.984 6.455 138.992 6.483C139.002 6.509 139.012 6.535 139.022 6.557C139.03 6.585 139.041 6.607 139.05 6.633C139.404 6.789 139.744 6.951 140.075 7.122C140.712 7.44436 141.328 7.80571 141.92 8.204C142.202 8.393 142.473 8.593 142.73 8.793L142.7 8.718C142.692 8.69269 142.682 8.66797 142.67 8.644C142.662 8.622 142.652 8.594 142.64 8.57L142.612 8.496C142.325 7.803 141.997 7.12808 141.628 6.475C141.457 6.1663 141.275 5.86346 141.083 5.567C140.897 5.27995 140.703 4.9985 140.5 4.723C140.25 4.52 139.99 4.326 139.717 4.133C139.152 3.73656 138.564 3.37425 137.956 3.048C137.634 2.87629 137.308 2.71291 136.978 2.558C137.162 2.825 137.338 3.101 137.512 3.388C137.684 3.681 137.854 3.983 138.017 4.294ZM142.492 7.227C142.673 7.542 142.846 7.869 143.01 8.203C143.175 8.54 143.334 8.887 143.484 9.243C143.496 9.268 143.504 9.292 143.515 9.318C143.525 9.34 143.536 9.366 143.545 9.392C143.557 9.41461 143.567 9.438 143.575 9.462C143.588 9.487 143.597 9.515 143.605 9.537C143.866 9.78132 144.116 10.0369 144.355 10.303C144.468 10.433 144.583 10.566 144.688 10.702C144.869 10.9238 145.039 11.1548 145.196 11.394C145.26 11.489 145.323 11.585 145.381 11.682C145.441 11.777 145.497 11.876 145.552 11.971C145.607 12.068 145.657 12.168 145.709 12.263C145.698 12.2391 145.687 12.2147 145.678 12.19C145.666 12.1668 145.656 12.1428 145.648 12.118C145.639 12.094 145.626 12.069 145.617 12.047C145.609 12.0219 145.598 11.9975 145.586 11.974C145.546 11.881 145.504 11.789 145.463 11.697C145.425 11.607 145.383 11.517 145.339 11.426C145.299 11.336 145.254 11.246 145.212 11.156C145.168 11.068 145.126 10.981 145.08 10.892C144.492 9.818 143.634 8.429 142.97 7.402L142.534 6.808C142.448 6.69044 142.358 6.57603 142.264 6.465C142.171 6.35073 142.075 6.2387 141.976 6.129C141.877 6.01564 141.775 5.90493 141.67 5.797C141.566 5.68621 141.459 5.57817 141.349 5.473H141.347C141.549 5.743 141.747 6.026 141.936 6.319C142.13 6.611 142.315 6.916 142.492 7.227ZM121.293 11.632C122.359 11.526 123.428 11.4486 124.499 11.4C124.429 10.8911 124.354 10.3827 124.276 9.875C124.202 9.379 124.126 8.89 124.046 8.408C123.964 7.93 123.885 7.461 123.799 7.001C123.719 6.55275 123.633 6.10539 123.543 5.659C123.013 5.68207 122.484 5.7134 121.955 5.753C121.424 5.79161 120.894 5.83895 120.364 5.895C119.832 5.94902 119.3 6.01236 118.77 6.085C118.241 6.158 117.71 6.237 117.181 6.325L117.393 7.667C117.465 8.125 117.541 8.593 117.615 9.069C117.689 9.549 117.765 10.037 117.845 10.529L118.08 12.045C119.147 11.8774 120.218 11.7397 121.293 11.632ZM136.807 12.407C137.23 12.509 137.646 12.613 138.051 12.727C138.457 12.839 138.849 12.96 139.235 13.086C139.143 12.1268 139.009 11.1722 138.832 10.225C138.667 9.33218 138.457 8.44809 138.204 7.576C137.822 7.436 137.428 7.302 137.025 7.178C136.187 6.91864 135.338 6.69577 134.481 6.51C134.033 6.41077 133.582 6.32141 133.13 6.242C133.358 7.13739 133.555 8.04063 133.719 8.95C133.895 9.92476 134.037 10.9054 134.144 11.89C134.604 11.96 135.059 12.04 135.504 12.125C135.946 12.213 136.38 12.305 136.807 12.407ZM141.598 14.001C141.932 14.153 142.253 14.309 142.561 14.471C142.869 14.631 143.165 14.8 143.45 14.972C143.729 15.142 144 15.322 144.258 15.502C144.221 15.0405 144.17 14.5803 144.105 14.122C144.046 13.6732 143.973 13.2263 143.887 12.782C143.8 12.342 143.703 11.908 143.598 11.482C143.49 11.0618 143.372 10.6443 143.244 10.23C142.984 10.03 142.711 9.838 142.424 9.65C141.829 9.25741 141.21 8.90142 140.571 8.584C140.231 8.41311 139.887 8.2527 139.537 8.103C139.923 9.42082 140.211 10.7655 140.398 12.126C140.465 12.6 140.521 13.079 140.568 13.566C140.924 13.704 141.266 13.85 141.598 14.001ZM144.982 14.811C145.045 15.263 145.095 15.715 145.128 16.173C145.512 16.4937 145.872 16.8434 146.203 17.219C146.309 17.34 146.409 17.463 146.506 17.584C146.636 17.7541 146.762 17.9279 146.882 18.105L147.046 18.365C147.099 18.455 147.148 18.54 147.196 18.629C147.131 17.7724 147.016 16.9204 146.853 16.077C146.769 15.6647 146.675 15.2545 146.57 14.847C146.466 14.4449 146.349 14.0464 146.219 13.652C146.17 13.5535 146.117 13.4568 146.061 13.362C146.011 13.266 145.954 13.174 145.896 13.079C145.835 12.984 145.774 12.889 145.711 12.795C145.646 12.697 145.578 12.605 145.512 12.51C145.412 12.377 145.311 12.242 145.204 12.11C145.095 11.9784 144.983 11.8484 144.87 11.72C144.63 11.4583 144.379 11.2071 144.117 10.967C144.249 11.373 144.367 11.785 144.474 12.207C144.584 12.627 144.678 13.055 144.764 13.49C144.846 13.924 144.92 14.368 144.982 14.811ZM117.023 17.482C116.93 16.933 116.835 16.39 116.744 15.848C116.654 15.311 116.562 14.777 116.477 14.248C115.952 14.348 115.431 14.453 114.914 14.564C114.398 14.678 113.886 14.796 113.377 14.92C112.869 15.046 112.365 15.178 111.867 15.315C111.374 15.4526 110.882 15.597 110.393 15.748C110.496 16.264 110.603 16.78 110.713 17.303C110.827 17.827 110.944 18.354 111.065 18.886C111.186 19.419 111.312 19.951 111.445 20.488C111.573 21.025 111.71 21.564 111.849 22.104C112.785 21.8399 113.728 21.6031 114.678 21.394C115.649 21.1749 116.625 20.9808 117.606 20.812C117.506 20.254 117.409 19.695 117.312 19.138L117.023 17.482ZM125.108 16.57C125.053 16.0176 124.995 15.4656 124.933 14.914C124.874 14.3722 124.812 13.8309 124.746 13.29C124.219 13.316 123.688 13.345 123.161 13.384C121.559 13.4995 119.963 13.6797 118.376 13.924L118.624 15.534C118.709 16.077 118.794 16.625 118.884 17.175C118.966 17.729 119.053 18.285 119.138 18.843C119.225 19.403 119.312 19.964 119.401 20.527C121.393 20.2452 123.397 20.0564 125.406 19.961C125.361 19.39 125.314 18.822 125.266 18.258C125.217 17.6953 125.164 17.133 125.108 16.571V16.57ZM132.745 15.124C132.716 14.5908 132.679 14.0581 132.635 13.526C131.659 13.417 130.679 13.3396 129.698 13.294C129.195 13.27 128.688 13.254 128.178 13.245C127.662 13.2345 127.146 13.2328 126.63 13.24C126.751 14.3312 126.858 15.4239 126.95 16.518C126.995 17.074 127.039 17.638 127.076 18.203C127.114 18.77 127.148 19.337 127.18 19.907C128.143 19.8876 129.106 19.8966 130.068 19.934C130.538 19.95 131.006 19.973 131.468 20C131.928 20.03 132.384 20.065 132.835 20.103C132.854 18.9887 132.848 17.874 132.816 16.76C132.799 16.2144 132.775 15.669 132.745 15.124ZM138.192 14.543C136.917 14.2009 135.622 13.9338 134.316 13.743C134.355 14.267 134.384 14.796 134.408 15.333C134.434 15.87 134.45 16.413 134.458 16.956C134.473 18.0635 134.459 19.1712 134.416 20.278C135.645 20.4316 136.865 20.6466 138.072 20.922C138.453 21.009 138.821 21.102 139.182 21.201C139.235 20.662 139.282 20.125 139.318 19.59C139.385 18.5367 139.416 17.4814 139.411 16.426C139.406 15.9121 139.391 15.3983 139.366 14.885C138.986 14.764 138.593 14.651 138.192 14.543Z" fill="#7B8BA5"/>
<path fill-rule="evenodd" clip-rule="evenodd" d="M143.546 16.693C143.257 16.5239 142.964 16.3631 142.666 16.211C142.352 16.0527 142.033 15.903 141.711 15.762C141.381 15.615 141.038 15.477 140.687 15.345C140.73 16.3679 140.73 17.3921 140.687 18.415C140.642 19.4712 140.557 20.5253 140.431 21.575C140.764 21.685 141.088 21.801 141.401 21.92C141.714 22.04 142.016 22.164 142.308 22.293C142.596 22.42 142.875 22.553 143.143 22.69C143.408 22.825 143.664 22.967 143.908 23.112C143.992 22.6135 144.064 22.113 144.124 21.611C144.248 20.6277 144.322 19.6387 144.346 18.648C144.359 18.164 144.361 17.68 144.348 17.199C144.086 17.022 143.819 16.8532 143.546 16.693ZM147.234 21.543C147.257 21.094 147.267 20.651 147.26 20.206C147.214 20.1214 147.165 20.038 147.115 19.956C147.06 19.869 147.005 19.786 146.95 19.702C146.892 19.6172 146.832 19.5335 146.77 19.451C146.707 19.367 146.642 19.286 146.576 19.201C146.278 18.8318 145.949 18.488 145.594 18.173C145.47 18.0608 145.344 17.9511 145.215 17.844C145.23 18.8016 145.198 19.7594 145.121 20.714C145.039 21.6977 144.908 22.6769 144.731 23.648C144.857 23.74 144.98 23.831 145.096 23.925C145.215 24.015 145.326 24.11 145.436 24.204C145.716 24.4494 145.979 24.7134 146.223 24.994C146.283 25.065 146.339 25.136 146.396 25.206C146.503 25.3436 146.604 25.4857 146.699 25.632C146.796 25.173 146.881 24.715 146.955 24.259C147.095 23.3591 147.189 22.4525 147.235 21.543H147.234ZM148 22.475C147.966 22.1286 147.898 21.7865 147.795 21.454C147.744 21.2795 147.685 21.1076 147.618 20.939C147.619 21.375 147.61 21.815 147.585 22.252C147.566 22.692 147.53 23.134 147.482 23.578C147.435 24.021 147.372 24.465 147.302 24.912C147.229 25.357 147.14 25.804 147.043 26.25C147.126 26.421 147.192 26.597 147.25 26.768C147.359 27.1048 147.426 27.4538 147.45 27.807C147.463 27.98 147.463 28.15 147.45 28.321C147.518 28.028 147.58 27.733 147.637 27.439C147.693 27.144 147.743 26.85 147.785 26.554C147.873 25.9696 147.935 25.3817 147.972 24.792L147.984 24.602L148.026 22.982C148.026 22.813 148.014 22.642 148 22.475Z" fill="#7B8BA5"/>
</svg>
