<svg width="142" height="32" viewBox="0 0 142 32" fill="none" xmlns="http://www.w3.org/2000/svg">
<path d="M39.534 1.57203C39.534 0.745031 40.197 0.0820312 41.026 0.0820312H44.88C49.19 0.0820312 52.173 3.02103 52.173 6.91103V6.95103C52.173 10.801 49.19 13.821 44.88 13.821H41.026C40.83 13.822 40.6357 13.7841 40.4544 13.7095C40.2731 13.635 40.1083 13.5253 39.9696 13.3868C39.8309 13.2483 39.721 13.0837 39.6463 12.9025C39.5715 12.7213 39.5333 12.5271 39.534 12.331V1.57203ZM44.88 11.049C47.366 11.049 49.024 9.39303 49.024 6.95203V6.91003C49.024 4.46803 47.366 2.77103 44.88 2.77103H42.56V11.048H44.88V11.049ZM54.37 1.57203C54.37 0.745031 55.033 0.0820312 55.862 0.0820312H60.627C62.367 0.0820312 63.735 0.579031 64.647 1.49003C65.393 2.23503 65.807 3.31003 65.807 4.63503V4.67603C65.807 6.82803 64.73 8.15203 63.072 8.85603L65.186 11.421C65.476 11.793 65.683 12.124 65.683 12.58C65.683 13.407 64.978 13.987 64.233 13.987C63.528 13.987 63.113 13.655 62.741 13.2L59.798 9.47603H57.395V12.414C57.395 13.242 56.732 13.904 55.903 13.904C55.707 13.905 55.5127 13.8671 55.3314 13.7925C55.1501 13.718 54.9853 13.6083 54.8466 13.4698C54.7079 13.3313 54.598 13.1667 54.5233 12.9855C54.4485 12.8043 54.4103 12.6101 54.411 12.414V1.57203H54.37ZM60.461 6.74503C61.953 6.74503 62.782 5.95903 62.782 4.80003V4.76003C62.782 3.47703 61.87 2.81503 60.42 2.81503H57.436V6.74603H60.461V6.74503ZM69.247 10.552C70.241 10.552 70.946 11.297 70.946 12.207V12.249C70.946 13.2 70.2 13.904 69.246 13.904C68.294 13.904 67.548 13.159 67.548 12.249V12.207C67.506 11.255 68.252 10.552 69.247 10.552ZM39.244 30.166C38.912 29.918 38.664 29.504 38.664 29.049C38.664 28.263 39.285 27.642 40.073 27.642C40.446 27.642 40.736 27.766 40.943 27.932C41.979 28.677 43.139 29.173 44.465 29.173C45.709 29.173 46.455 28.677 46.455 27.89V27.849C46.455 27.104 45.999 26.69 43.678 26.111C40.902 25.407 39.12 24.621 39.12 21.931V21.891C39.12 19.407 41.109 17.752 43.927 17.752C45.584 17.752 47.035 18.166 48.278 18.952C48.61 19.159 48.941 19.572 48.941 20.152C48.941 20.938 48.319 21.559 47.532 21.559C47.242 21.559 46.993 21.476 46.786 21.352C45.792 20.772 44.838 20.442 43.886 20.442C42.725 20.442 42.103 20.98 42.103 21.642V21.683C42.103 22.593 42.683 22.883 45.046 23.504C47.822 24.249 49.396 25.242 49.396 27.601V27.642C49.396 30.373 47.325 31.904 44.341 31.904C42.601 31.78 40.777 31.242 39.244 30.166ZM51.718 19.283C51.718 18.456 52.381 17.793 53.209 17.793C54.039 17.793 54.701 18.456 54.701 19.283V30.208C54.701 31.035 54.038 31.698 53.209 31.698C53.0131 31.6988 52.8189 31.6608 52.6377 31.5862C52.4565 31.5117 52.2919 31.402 52.1533 31.2634C52.0147 31.1249 51.9049 30.9604 51.8302 30.7792C51.7555 30.5981 51.7173 30.404 51.718 30.208V19.283ZM57.685 19.325C57.685 18.497 58.348 17.835 59.177 17.835H59.508C60.254 17.835 60.668 18.207 61.083 18.704L66.926 26.359V19.242C66.926 18.414 67.589 17.752 68.418 17.752C69.247 17.752 69.91 18.414 69.91 19.242V30.166C69.91 30.994 69.247 31.656 68.418 31.656H68.335C67.589 31.656 67.175 31.283 66.76 30.786L60.71 22.883V30.208C60.71 31.035 60.047 31.698 59.218 31.698C59.022 31.699 58.8277 31.6611 58.6464 31.5865C58.4651 31.512 58.3003 31.4023 58.1616 31.2638C58.0229 31.1253 57.913 30.9607 57.8383 30.7795C57.7635 30.5983 57.7253 30.4041 57.726 30.208V19.325H57.685ZM75.919 20.649H73.018C72.272 20.649 71.608 20.029 71.608 19.242C71.608 18.497 72.231 17.835 73.018 17.835H81.845C82.591 17.835 83.254 18.455 83.254 19.242C83.254 19.987 82.632 20.649 81.844 20.649H78.944V30.208C78.944 31.035 78.281 31.698 77.452 31.698C77.256 31.699 77.0617 31.6611 76.8804 31.5865C76.6991 31.512 76.5343 31.4023 76.3956 31.2638C76.2569 31.1253 76.147 30.9607 76.0723 30.7795C75.9975 30.5983 75.9593 30.4041 75.96 30.208V20.648H75.919V20.649ZM83.709 24.787C83.709 20.856 86.776 17.669 91.044 17.669C95.271 17.669 98.338 20.814 98.338 24.704V24.745C98.338 28.635 95.271 31.821 91.003 31.821C86.776 31.821 83.71 28.677 83.71 24.787H83.709ZM95.147 24.787C95.147 22.387 93.407 20.442 91.003 20.442C88.558 20.442 86.9 22.345 86.9 24.704V24.745C86.9 27.105 88.64 29.049 91.044 29.049C93.489 29.049 95.147 27.145 95.147 24.787ZM100.534 19.325C100.534 18.497 101.197 17.835 102.026 17.835H102.358C103.021 17.835 103.477 18.165 103.725 18.621L107.372 24.539L111.06 18.579C111.392 18.083 111.806 17.835 112.428 17.835H112.759C113.588 17.835 114.251 18.497 114.251 19.325V30.208C114.251 31.035 113.588 31.698 112.759 31.698C111.93 31.698 111.267 30.994 111.267 30.208V23.38L108.615 27.435C108.284 27.89 107.911 28.18 107.372 28.18C106.833 28.18 106.419 27.89 106.129 27.435L103.518 23.421V30.249C103.518 31.077 102.855 31.739 102.026 31.739C101.197 31.739 100.576 31.077 100.576 30.249V19.325H100.534ZM116.282 29.67L121.089 18.87C121.42 18.125 122.042 17.67 122.871 17.67H123.036C123.866 17.67 124.446 18.125 124.776 18.87L129.584 29.67C129.667 29.877 129.75 30.083 129.75 30.29C129.751 30.4807 129.715 30.6698 129.642 30.8462C129.57 31.0226 129.463 31.1828 129.328 31.3176C129.193 31.4525 129.033 31.5591 128.856 31.6315C128.68 31.7038 128.491 31.7404 128.3 31.739C127.595 31.739 127.139 31.325 126.849 30.704L125.937 28.552H119.887L118.934 30.787C118.685 31.367 118.188 31.739 117.524 31.739C117.339 31.7406 117.155 31.7053 116.984 31.6352C116.812 31.5651 116.656 31.4615 116.525 31.3306C116.394 31.1996 116.29 31.0439 116.22 30.8724C116.15 30.701 116.115 30.5173 116.116 30.332C116.116 30.083 116.199 29.877 116.282 29.67ZM124.777 25.863L122.871 21.353L120.964 25.863H124.777ZM131.2 30.166C130.869 29.918 130.62 29.504 130.62 29.049C130.62 28.263 131.242 27.642 132.029 27.642C132.402 27.642 132.692 27.766 132.899 27.932C133.935 28.677 135.096 29.173 136.422 29.173C137.665 29.173 138.411 28.677 138.411 27.89V27.849C138.411 27.104 137.955 26.69 135.634 26.111C132.858 25.407 131.076 24.621 131.076 21.931V21.891C131.076 19.407 133.065 17.752 135.883 17.752C137.541 17.752 138.991 18.166 140.234 18.952C140.566 19.159 140.897 19.572 140.897 20.152C140.897 20.938 140.276 21.559 139.488 21.559C139.198 21.559 138.949 21.476 138.742 21.352C137.748 20.772 136.795 20.442 135.842 20.442C134.682 20.442 134.06 20.98 134.06 21.642V21.683C134.06 22.593 134.64 22.883 137.002 23.504C139.778 24.249 141.353 25.242 141.353 27.601V27.642C141.353 30.373 139.281 31.904 136.297 31.904C134.557 31.78 132.733 31.242 131.2 30.166ZM24.616 8.07003C24.616 7.49003 24.16 7.03603 23.58 7.03603H13.965V4.92603H23.58C23.9933 4.92551 24.4026 5.00643 24.7845 5.16419C25.1665 5.32194 25.5136 5.55343 25.8061 5.84541C26.0985 6.1374 26.3306 6.48416 26.4889 6.86587C26.6473 7.24759 26.7289 7.65677 26.729 8.07003V10.18H24.616V8.07003ZM6.92 17.711V17.669H4.807V8.06903C4.80713 7.65564 4.88873 7.24633 5.04714 6.86449C5.20555 6.48266 5.43767 6.13578 5.73021 5.8437C6.02275 5.55163 6.36999 5.32007 6.75208 5.16226C7.13417 5.00446 7.54361 4.92351 7.957 4.92403H10.07V7.03403H7.957C7.377 7.03403 6.921 7.49003 6.921 8.06903V17.711H6.92ZM24.615 14.069H26.728V23.669C26.7279 24.0824 26.6463 24.4917 26.4879 24.8736C26.3294 25.2554 26.0973 25.6023 25.8048 25.8944C25.5122 26.1864 25.165 26.418 24.7829 26.5758C24.4008 26.7336 23.9914 26.8146 23.578 26.814H21.465V24.704H23.579C24.159 24.704 24.615 24.249 24.615 23.67V14.07V14.069ZM17.611 24.704V26.814H7.998C7.58469 26.8146 7.17533 26.7336 6.79331 26.5759C6.41129 26.4182 6.06409 26.1867 5.77156 25.8947C5.47903 25.6027 5.2469 25.256 5.08843 24.8743C4.92996 24.4925 4.84826 24.0833 4.848 23.67V21.56H6.962V23.67C6.962 24.249 7.418 24.704 7.998 24.704H17.612H17.611ZM28.386 11.049C30.126 11.049 31.536 12.497 31.536 14.193V17.503C31.536 17.9165 31.4545 18.3259 31.2961 18.7079C31.1378 19.0898 30.9057 19.4368 30.6131 19.729C30.3206 20.0212 29.9733 20.2528 29.5912 20.4107C29.209 20.5686 28.7995 20.6496 28.386 20.649H27.64V18.539H28.386C28.966 18.539 29.422 18.083 29.422 17.504V14.194C29.422 13.614 28.966 13.159 28.386 13.159H21.341C20.5944 13.1588 19.8784 12.8623 19.3501 12.3348C18.8218 11.8072 18.5243 11.0916 18.523 10.345V7.90403H20.636V10.345C20.636 10.717 20.926 11.049 21.341 11.049H28.386ZM7.79 13.159V11.049H10.235C10.608 11.049 10.939 10.759 10.939 10.345V3.31003C10.9393 2.89664 11.021 2.48735 11.1795 2.10557C11.3381 1.72378 11.5703 1.37698 11.8629 1.085C12.1556 0.79301 12.5029 0.561561 12.885 0.403879C13.2671 0.246197 13.6766 0.165374 14.09 0.166031H17.405C19.145 0.166031 20.555 1.57203 20.555 3.31003V4.05503H18.44V3.31003C18.44 2.73103 17.984 2.27603 17.404 2.27603H14.09C13.51 2.27603 13.054 2.73103 13.054 3.31003V10.345C13.0527 11.0916 12.7552 11.8072 12.2269 12.3348C11.6986 12.8623 10.9826 13.1588 10.236 13.159H7.79ZM10.94 21.394C10.9408 21.3013 10.9231 21.2093 10.8879 21.1234C10.8528 21.0376 10.8009 20.9596 10.7352 20.8941C10.6696 20.8285 10.5916 20.7767 10.5057 20.7417C10.4198 20.7067 10.3278 20.6891 10.235 20.69H3.149C2.73569 20.6904 2.32636 20.6094 1.94439 20.4515C1.56242 20.2937 1.21529 20.0621 0.922856 19.77C0.630418 19.4779 0.398396 19.1311 0.240049 18.7493C0.0817011 18.3676 0.000131187 17.9583 0 17.545L0 14.235C0.000131068 13.8216 0.0817341 13.4123 0.240144 13.0305C0.398554 12.6487 0.630666 12.3018 0.92321 12.0097C1.21575 11.7176 1.56299 11.4861 1.94508 11.3283C2.32717 11.1705 2.73661 11.0895 3.15 11.09H3.895V13.2H3.15C2.57 13.2 2.114 13.655 2.114 14.235V17.545C2.114 18.125 2.57 18.58 3.15 18.58H10.237C10.9836 18.5803 11.6996 18.8767 12.2279 19.4043C12.7562 19.9318 13.0537 20.6474 13.055 21.394V23.835H10.94V21.394ZM21.3 18.58V18.621H23.744V20.731H21.3C21.2073 20.7302 21.1154 20.7479 21.0296 20.783C20.9439 20.8181 20.8659 20.8699 20.8004 20.9354C20.7349 21.001 20.6831 21.0789 20.648 21.1647C20.6129 21.2505 20.5952 21.3424 20.596 21.435V28.47C20.5959 28.8834 20.5143 29.2927 20.3559 29.6746C20.1974 30.0564 19.9653 30.4033 19.6728 30.6954C19.3802 30.9874 19.033 31.219 18.6509 31.3768C18.2688 31.5346 17.8594 31.6156 17.446 31.615H14.131C13.7176 31.6156 13.3082 31.5346 12.9261 31.3768C12.544 31.219 12.1968 30.9874 11.9042 30.6954C11.6117 30.4033 11.3796 30.0564 11.2211 29.6746C11.0627 29.2927 10.9811 28.8834 10.981 28.47V27.725H13.095V28.428C13.095 29.008 13.551 29.463 14.131 29.463H17.446C18.026 29.463 18.482 29.008 18.482 28.428V21.394C18.4833 20.6474 18.7808 19.9318 19.3091 19.4043C19.8374 18.8767 20.5534 18.5803 21.3 18.58Z" fill="#7B8BA5"/>
</svg>
