<svg width="120" height="52" viewBox="0 0 120 52" fill="none" xmlns="http://www.w3.org/2000/svg">
<path fill-rule="evenodd" clip-rule="evenodd" d="M20.591 15.621H30.409L24.653 33.317L24.635 33.367H30.032L30.729 36.5H20.104L26.068 18.616L26.086 18.565H21.163L20.591 15.621ZM17.017 20.917C19.09 20.917 20.832 22.667 20.832 24.75C20.832 26.83 19.09 28.632 17.017 28.632L15.193 28.63H15.155V31.063H12.318V23.315L11.958 20.917H17.017ZM16.764 26.381C17.559 26.381 18.261 25.62 18.261 24.817C18.261 24.019 17.559 23.317 16.764 23.317L15.193 23.32H15.155V26.384H15.193L16.764 26.381ZM36.814 26.939L36.808 21.144L39.675 20.677V26.803C39.678 27.3975 39.5636 27.9868 39.3383 28.537C39.113 29.0871 38.7813 29.5874 38.3622 30.009C37.943 30.4307 37.4447 30.7654 36.8959 30.994C36.3471 31.2226 35.7585 31.3405 35.164 31.341C34.5695 31.3405 33.9809 31.2226 33.4321 30.994C32.8833 30.7654 32.385 30.4307 31.9658 30.009C31.5467 29.5874 31.215 29.0871 30.9897 28.537C30.7644 27.9868 30.65 27.3975 30.653 26.803V21.143L33.518 20.677L33.514 26.939C33.514 27.886 34.284 28.599 35.164 28.599C36.043 28.599 36.814 27.886 36.814 26.939ZM25.876 0C40.139 0.003 51.744 11.657 51.746 25.977C51.744 40.297 40.139 51.947 25.876 51.947C11.608 51.948 0 40.298 0 25.978C0 11.657 11.608 0.003 25.876 0ZM25.876 44.238C35.886 44.222 44.047 36.029 44.069 25.975C44.047 15.922 35.886 7.728 25.876 7.71C15.86 7.728 7.697 15.922 7.68 25.975C7.697 36.029 15.86 44.223 25.876 44.238ZM60.432 31.114V29.777L65.14 22.279H60.632V20.886H66.959V22.15L62.221 29.72H66.959V31.114H60.432ZM74.124 22.969C73.695 22.466 73.109 22.264 72.379 22.264H70.517V29.734H72.379C73.109 29.734 73.695 29.534 74.124 29.031C74.626 28.471 74.669 27.523 74.669 26C74.669 24.477 74.626 23.528 74.124 22.969ZM75.441 29.819C74.725 30.711 73.824 31.114 72.55 31.114H68.972V20.886H72.55C73.824 20.886 74.725 21.288 75.441 22.178C76.185 23.098 76.214 24.362 76.214 26C76.214 27.636 76.185 28.9 75.441 29.82V29.819ZM82.334 22.279H80.044V25.483H82.334C83.365 25.483 84.066 24.893 84.066 23.888C84.066 22.882 83.366 22.279 82.334 22.279ZM84.124 31.113L81.977 26.803H80.044V31.113H78.498V20.886H82.448C84.381 20.886 85.612 22.136 85.612 23.874C85.612 25.339 84.724 26.272 83.58 26.588L85.927 31.113H84.123H84.124ZM92.534 22.811C92.3387 22.606 92.1029 22.4439 91.8415 22.3349C91.5802 22.2259 91.2991 22.1725 91.016 22.178C90.401 22.178 89.886 22.408 89.499 22.811C88.999 23.356 88.899 23.974 88.899 25.999C88.899 28.025 88.999 28.629 89.499 29.174C89.6937 29.3803 89.929 29.5442 90.19 29.6554C90.4511 29.7666 90.7323 29.8226 91.016 29.82C91.633 29.82 92.148 29.576 92.534 29.174C93.049 28.643 93.134 28.025 93.134 25.999C93.134 23.974 93.049 23.342 92.534 22.811ZM93.651 30.164C92.991 30.824 92.133 31.2 91.016 31.2C89.9 31.2 89.041 30.825 88.383 30.164C87.381 29.158 87.353 28.139 87.353 25.999C87.353 23.859 87.381 22.839 88.383 21.834C89.041 21.174 89.9 20.8 91.016 20.8C92.133 20.8 92.992 21.173 93.651 21.834C94.651 22.84 94.681 23.859 94.681 25.999C94.681 28.139 94.651 29.159 93.651 30.164ZM105.138 31.114H103.793L101.717 23.946L99.657 31.114H98.31L95.648 20.886H97.28L99.055 28.197L101.101 20.886H102.347L104.393 28.197L106.168 20.886H107.798L105.138 31.114ZM109.282 31.114V20.886H110.828V31.114H109.282ZM113.487 31.114V20.886H120V22.279H115.033V25.267H119.269V26.646H115.033V29.72H120V31.114H113.487Z" fill="#7B8BA5"/>
</svg>
