<svg width="24" height="24" viewBox="0 0 24 24" fill="none" xmlns="http://www.w3.org/2000/svg">
<path d="M23.5312 7.5L12.5625 0.1875C12.1875 -0.0625 11.8125 -0.0625 11.4375 0.1875L0.46875 7.5C0.15625 7.6875 0 7.96875 0 8.34375V15.6562C0 16.0312 0.15625 16.3125 0.46875 16.5L11.4375 23.8125C11.8125 24.0625 12.1875 24.0625 12.5625 23.8125L23.5312 16.5C23.8438 16.3125 24 16.0312 24 15.6562V8.34375C24 7.96875 23.8438 7.6875 23.5312 7.5ZM13.0312 2.95312L21.0938 8.34375L17.4844 10.7344L13.0312 7.78125V2.95312ZM10.9688 2.95312V7.78125L6.51562 10.7344L2.90625 8.34375L10.9688 2.95312ZM2.0625 10.2656L4.64062 12L2.0625 13.7344V10.2656ZM10.9688 21.0469L2.90625 15.6562L6.51562 13.2656L10.9688 16.2188V21.0469ZM12 14.4375L8.34375 12L12 9.5625L15.6562 12L12 14.4375ZM13.0312 21.0469V16.2188L17.4844 13.2656L21.0938 15.6562L13.0312 21.0469ZM21.9375 13.7344L19.3594 12L21.9375 10.2656V13.7344Z" fill="#B2B2B2"/>
</svg>
