<svg width="21" height="22" viewBox="0 0 21 22" fill="none" xmlns="http://www.w3.org/2000/svg">
<path d="M4.6875 21.5H0.328125V7.48438H4.6875V21.5ZM2.53125 5.5625C1.84375 5.5625 1.25 5.3125 0.75 4.8125C0.25 4.3125 0 3.71875 0 3.03125C0 2.34375 0.25 1.75 0.75 1.25C1.25 0.75 1.84375 0.5 2.53125 0.5C3.21875 0.5 3.8125 0.75 4.3125 1.25C4.8125 1.75 5.0625 2.34375 5.0625 3.03125C5.0625 3.71875 4.8125 4.3125 4.3125 4.8125C3.8125 5.3125 3.21875 5.5625 2.53125 5.5625ZM21 21.5H16.6406V14.6562C16.6406 13.5312 16.5469 12.7188 16.3594 12.2188C16.0156 11.375 15.3438 10.9531 14.3438 10.9531C13.3438 10.9531 12.6406 11.3281 12.2344 12.0781C11.9219 12.6406 11.7656 13.4688 11.7656 14.5625V21.5H7.45312V7.48438H11.625V9.40625H11.6719C11.9844 8.78125 12.4844 8.26562 13.1719 7.85938C13.9219 7.35938 14.7969 7.10938 15.7969 7.10938C17.8281 7.10938 19.25 7.75 20.0625 9.03125C20.6875 10.0625 21 11.6562 21 13.8125V21.5Z" fill="#B2B2B2"/>
</svg>
