<svg width="27" height="18" viewBox="0 0 27 18" fill="none" xmlns="http://www.w3.org/2000/svg">
<path d="M10.875 8.10938C12.375 7.39062 13.125 6.25 13.125 4.6875C13.125 3.125 12.6094 2.01562 11.5781 1.35938C10.7031 0.796875 9.45312 0.515625 7.82812 0.515625H0V17.1562H8.0625C9.71875 17.1562 11.0625 16.7656 12.0938 15.9844C13.3125 15.1406 13.9219 13.9219 13.9219 12.3281C13.9219 11.2656 13.6562 10.375 13.125 9.65625C12.625 8.90625 11.875 8.39062 10.875 8.10938ZM3.65625 3.375H7.07812C8.73438 3.375 9.5625 4 9.5625 5.25C9.5625 5.9375 9.35938 6.45312 8.95312 6.79688C8.57812 7.10938 8.04688 7.26562 7.35938 7.26562H3.65625V3.375ZM7.54688 14.3438H3.65625V9.75H7.64062C9.39062 9.75 10.2656 10.5469 10.2656 12.1406C10.2656 13.6094 9.35938 14.3438 7.54688 14.3438ZM24.375 3.04688H17.625V1.40625H24.375V3.04688ZM27 11.2969C27 9.45312 26.5 7.92188 25.5 6.70312C24.4062 5.42188 22.9531 4.78125 21.1406 4.78125C19.9531 4.78125 18.8906 5.0625 17.9531 5.625C17.0156 6.1875 16.2812 6.95312 15.75 7.92188C15.25 8.89062 15 9.96875 15 11.1562C15 13.0312 15.5469 14.5469 16.6406 15.7031C17.7656 16.8594 19.2656 17.4375 21.1406 17.4375C24.0156 17.4375 25.8906 16.0938 26.7656 13.4062H23.8594C23.7031 13.9062 23.3594 14.2969 22.8281 14.5781C22.3281 14.8594 21.7969 15 21.2344 15C20.2969 15 19.5625 14.7344 19.0312 14.2031C18.5312 13.6719 18.2812 12.9062 18.2812 11.9062H26.9531L27 11.2969ZM18.2812 9.84375C18.3438 9.0625 18.625 8.4375 19.125 7.96875C19.625 7.5 20.2656 7.26562 21.0469 7.26562C21.8594 7.26562 22.4844 7.5 22.9219 7.96875C23.3594 8.40625 23.6094 9.03125 23.6719 9.84375H18.2812Z" fill="#B2B2B2"/>
</svg>
