<svg width="24" height="24" viewBox="0 0 24 24" fill="none" xmlns="http://www.w3.org/2000/svg">
<path d="M8.15625 18.6094C8.15625 18.7344 8.07812 18.7969 7.92188 18.7969C7.73438 18.8281 7.64062 18.7656 7.64062 18.6094C7.64062 18.5156 7.71875 18.4688 7.875 18.4688C8.0625 18.4375 8.15625 18.4844 8.15625 18.6094ZM6.89062 18.6562C6.70312 18.625 6.625 18.5469 6.65625 18.4219C6.71875 18.2969 6.82812 18.2656 6.98438 18.3281C7.14062 18.3594 7.20312 18.4375 7.17188 18.5625C7.14062 18.6875 7.04688 18.7188 6.89062 18.6562ZM8.76562 18.3281C8.92188 18.3281 9 18.375 9 18.4688C9.03125 18.5625 8.96875 18.6406 8.8125 18.7031C8.65625 18.7344 8.5625 18.6875 8.53125 18.5625C8.53125 18.4375 8.60938 18.3594 8.76562 18.3281ZM11.8594 0.375C13.9844 0.375 15.9531 0.875 17.7656 1.875C19.5781 2.875 21 4.25 22.0312 6C23.0938 7.75 23.625 9.6875 23.625 11.8125C23.625 14.4062 22.8906 16.7344 21.4219 18.7969C19.9844 20.8281 18.0938 22.2344 15.75 23.0156C15.5 23.0781 15.2969 23.0469 15.1406 22.9219C15.0156 22.7969 14.9531 22.6406 14.9531 22.4531C14.9531 22.4219 14.9531 21.9219 14.9531 20.9531C14.9531 19.9531 14.9531 19.1406 14.9531 18.5156C14.9531 17.5156 14.6875 16.7969 14.1562 16.3594C14.8438 16.2656 15.375 16.1875 15.75 16.125C16.125 16.0625 16.5938 15.9219 17.1562 15.7031C17.7188 15.4844 18.1406 15.2031 18.4219 14.8594C18.7344 14.5156 19 14.0312 19.2188 13.4062C19.4375 12.7812 19.5469 12.0312 19.5469 11.1562C19.5469 10.5625 19.4531 10.0781 19.2656 9.70312C19.0781 9.32812 18.7656 8.90625 18.3281 8.4375C18.7031 7.46875 18.6719 6.40625 18.2344 5.25C17.9219 5.15625 17.5 5.21875 16.9688 5.4375C16.4375 5.625 15.9688 5.84375 15.5625 6.09375L15 6.51562C14.0312 6.23438 13.0312 6.09375 12 6.09375C11 6.09375 10.0312 6.23438 9.09375 6.51562C8.9375 6.39062 8.71875 6.25 8.4375 6.09375C8.15625 5.90625 7.71875 5.70313 7.125 5.48438C6.5625 5.23438 6.14062 5.15625 5.85938 5.25C5.39062 6.40625 5.34375 7.46875 5.71875 8.4375C5 9.21875 4.64062 10.125 4.64062 11.1562C4.64062 12.0312 4.75 12.7812 4.96875 13.4062C5.1875 14.0312 5.4375 14.5156 5.71875 14.8594C6 15.2031 6.40625 15.4844 6.9375 15.7031C7.46875 15.9219 7.92188 16.0781 8.29688 16.1719C8.70312 16.2344 9.23438 16.2969 9.89062 16.3594C9.48438 16.7344 9.23438 17.2656 9.14062 17.9531C8.82812 18.0781 8.5 18.1719 8.15625 18.2344C7.84375 18.2969 7.4375 18.2344 6.9375 18.0469C6.4375 17.8594 6.03125 17.5 5.71875 16.9688C5.53125 16.625 5.28125 16.3594 4.96875 16.1719C4.6875 15.9531 4.4375 15.8281 4.21875 15.7969L3.9375 15.75C3.25 15.75 3.21875 15.9844 3.84375 16.4531C4.0625 16.5781 4.28125 16.7812 4.5 17.0625C4.71875 17.3438 4.875 17.5938 4.96875 17.8125L5.15625 18.1875C5.28125 18.5625 5.5 18.875 5.8125 19.125C6.125 19.375 6.46875 19.5312 6.84375 19.5938C7.21875 19.6562 7.57812 19.6875 7.92188 19.6875C8.26562 19.6875 8.54688 19.6719 8.76562 19.6406L9.09375 19.5938C9.09375 19.9688 9.09375 20.5312 9.09375 21.2812C9.125 22.0312 9.14062 22.4219 9.14062 22.4531C9.14062 22.6406 9.0625 22.7969 8.90625 22.9219C8.78125 23.0469 8.59375 23.0781 8.34375 23.0156C5.96875 22.2344 4.04688 20.8281 2.57812 18.7969C1.10938 16.7344 0.375 14.4062 0.375 11.8125C0.375 8.5625 1.46875 5.84375 3.65625 3.65625C5.875 1.46875 8.60938 0.375 11.8594 0.375ZM4.92188 16.5469C4.98438 16.4844 5.0625 16.5 5.15625 16.5938C5.25 16.6875 5.26562 16.7656 5.20312 16.8281C5.14062 16.8906 5.0625 16.875 4.96875 16.7812C4.875 16.6875 4.85938 16.6094 4.92188 16.5469ZM4.40625 16.1719C4.46875 16.1094 4.54688 16.0938 4.64062 16.125C4.73438 16.1875 4.76562 16.25 4.73438 16.3125C4.70312 16.4062 4.64062 16.4219 4.54688 16.3594C4.42188 16.2969 4.375 16.2344 4.40625 16.1719ZM5.95312 17.8125C6.01562 17.7188 6.10938 17.7344 6.23438 17.8594C6.35938 17.9844 6.39062 18.0938 6.32812 18.1875C6.23438 18.2812 6.125 18.2656 6 18.1406C5.875 18.0156 5.85938 17.9062 5.95312 17.8125ZM5.39062 17.1562C5.48438 17.0625 5.57812 17.0938 5.67188 17.25C5.76562 17.375 5.76562 17.4688 5.67188 17.5312C5.57812 17.5938 5.48438 17.5625 5.39062 17.4375C5.32812 17.2812 5.32812 17.1875 5.39062 17.1562Z" fill="#B2B2B2"/>
</svg>
