<svg width="96" height="92" viewBox="0 0 96 92" fill="none" xmlns="http://www.w3.org/2000/svg">
<path fill-rule="evenodd" clip-rule="evenodd" d="M7.27503 20.095C23.261 -3.90499 69.636 -8.28699 86.095 24.255C102.554 56.797 59.028 93.602 30.893 83.465C2.75803 73.325 -8.71197 44.094 7.27503 20.094V20.095Z" fill="#EAEEF2"/>
<path fill-rule="evenodd" clip-rule="evenodd" d="M78 42.5H47C44.7015 42.4971 42.425 42.9485 40.3015 43.8282C38.1779 44.7079 36.2492 45.9985 34.626 47.626C32.9985 49.2492 31.7079 51.1779 30.8282 53.3015C29.9485 55.425 29.4971 57.7015 29.5 60C29.5 64.832 31.459 69.207 34.626 72.374C36.2492 74.0015 38.1779 75.2922 40.3015 76.1719C42.425 77.0516 44.7015 77.5029 47 77.5H78C82.832 77.5 87.207 75.541 90.374 72.374C92.0015 70.7509 93.2922 68.8221 94.1719 66.6986C95.0516 64.575 95.5029 62.2986 95.5 60C95.5 55.168 93.541 50.793 90.374 47.626C88.7509 45.9985 86.8221 44.7079 84.6986 43.8282C82.575 42.9485 80.2986 42.4971 78 42.5Z" fill="white" stroke="#BBC4D3"/>
<path fill-rule="evenodd" clip-rule="evenodd" d="M51.5 51.5H46.5V57.5H40.5V62.5H46.5V68.5H51.5V62.5H57.5V57.5H51.5V51.5ZM24.725 31.687C23.902 30.89 22.972 30.5 21.939 30.5C20.955 30.5 19.865 30.865 18.634 31.655C10.56 38.093 6.5 47.654 6.5 60.362C6.5 79.406 17.134 89.098 18.624 90.354C19.552 91.136 20.431 91.615 21.518 91.476C22.378 91.366 23.399 90.849 24.732 89.628C26.136 88.209 27.362 87.203 28.334 86.405C29.253 85.65 29.952 85.067 30.382 84.511C31.209 83.443 31.5 82.509 31.5 81.683C31.5 80.599 30.988 79.68 30.392 78.858C29.5372 77.6917 28.6607 76.5415 27.763 75.408C26.98 74.408 26.303 73.544 25.853 72.884C24.647 71.11 23.436 70.41 21.751 70.177C21.166 70.097 20.511 70.01 19.845 69.922C18.518 69.746 17.142 69.564 16.173 69.409C14.543 63.956 14.535 57.849 16.173 52.613C17.379 52.381 19.721 52.103 21.739 51.874C23.893 51.63 24.263 51.171 25.123 50.138C25.227 50.012 25.34 49.878 25.466 49.731C26.216 48.861 27.501 47.02 28.792 45.167C29.338 44.383 29.886 43.597 30.394 42.883C31.029 41.993 31.336 41.103 31.336 40.223C31.336 39.34 31.028 38.457 30.354 37.535C28.046 35.035 26.169 33.087 24.724 31.687H24.725Z" fill="#5C9FFF" stroke="#164798" stroke-linecap="round"/>
<path d="M64 65.5H76M64 55.5H83H64ZM64 60.5H83H64Z" stroke="#BBC4D3"/>
</svg>
