<svg width="90" height="95" viewBox="0 0 90 95" fill="none" xmlns="http://www.w3.org/2000/svg">
<path fill-rule="evenodd" clip-rule="evenodd" d="M75.278 13C55.224 -5.29404 11.452 -5.08004 1.278 30C-8.896 65.081 46.235 91.85 70.007 76.675C93.777 61.5 95.332 31.295 75.277 13H75.278Z" fill="#EAEEF2"/>
<path d="M74.5 27.5H27.5C25.8431 27.5 24.5 28.8431 24.5 30.5V37.5C24.5 39.1569 25.8431 40.5 27.5 40.5H74.5C76.1569 40.5 77.5 39.1569 77.5 37.5V30.5C77.5 28.8431 76.1569 27.5 74.5 27.5Z" fill="white" stroke="#BBC4D3"/>
<path d="M74.5 68.5H27.5C25.8431 68.5 24.5 69.8431 24.5 71.5V78.5C24.5 80.1569 25.8431 81.5 27.5 81.5H74.5C76.1569 81.5 77.5 80.1569 77.5 78.5V71.5C77.5 69.8431 76.1569 68.5 74.5 68.5Z" fill="white" stroke="#BBC4D3"/>
<path d="M74.5 81.5H27.5C25.8431 81.5 24.5 82.8431 24.5 84.5V91.5C24.5 93.1569 25.8431 94.5 27.5 94.5H74.5C76.1569 94.5 77.5 93.1569 77.5 91.5V84.5C77.5 82.8431 76.1569 81.5 74.5 81.5Z" fill="white" stroke="#BBC4D3"/>
<path fill-rule="evenodd" clip-rule="evenodd" d="M25.823 40.5C25.5082 40.5 25.2014 40.599 24.946 40.783L15.224 47.783C15.064 47.8979 14.9283 48.0432 14.8246 48.2107C14.7209 48.3782 14.6514 48.5645 14.62 48.759C14.5851 48.9735 14.5972 49.193 14.6555 49.4024C14.7138 49.6118 14.8169 49.8059 14.9576 49.9715C15.0984 50.1371 15.2735 50.2701 15.4707 50.3614C15.668 50.4526 15.8827 50.4999 16.1 50.5H86.1C86.514 50.5 86.889 50.332 87.16 50.06C87.3102 49.9099 87.4267 49.7296 87.502 49.5311C87.5773 49.3326 87.6096 49.1203 87.5967 48.9084C87.5839 48.6965 87.5262 48.4897 87.4274 48.3017C87.3287 48.1137 87.1912 47.9489 87.024 47.818L78.08 40.818C77.903 40.68 77.766 40.5 25.823 40.5Z" fill="#2E85FF" stroke="#164798" stroke-linecap="round"/>
<path fill-rule="evenodd" clip-rule="evenodd" d="M84 46.5H17C16.4089 46.4992 15.8236 46.6153 15.2775 46.8415C14.7314 47.0677 14.2354 47.3995 13.818 47.818C13.3995 48.2354 13.0677 48.7314 12.8415 49.2775C12.6153 49.8236 12.4992 50.4089 12.5 51V64C12.5 65.243 13.004 66.368 13.818 67.182C14.2354 67.6005 14.7314 67.9324 15.2775 68.1585C15.8236 68.3847 16.4089 68.5008 17 68.5H84C84.5911 68.5008 85.1765 68.3847 85.7225 68.1585C86.2686 67.9324 86.7646 67.6005 87.182 67.182C87.6005 66.7646 87.9324 66.2686 88.1585 65.7225C88.3847 65.1765 88.5008 64.5911 88.5 64V51C88.5008 50.4089 88.3847 49.8236 88.1585 49.2775C87.9324 48.7314 87.6005 48.2354 87.182 47.818C86.7646 47.3995 86.2686 47.0677 85.7225 46.8415C85.1765 46.6153 84.5911 46.4992 84 46.5Z" fill="#5C9FFF" stroke="#164798" stroke-linecap="round"/>
<path fill-rule="evenodd" clip-rule="evenodd" d="M33.5 50.5H29.5V54.5H25.5V58.5H29.5V62.5H33.5V58.5H37.5V54.5H33.5V50.5Z" fill="white" stroke="#164798" stroke-linecap="round"/>
<path d="M44 58.5H77M44 54.5H65H44Z" stroke="#164798"/>
</svg>
