<svg width="92" height="93" viewBox="0 0 92 93" fill="none" xmlns="http://www.w3.org/2000/svg">
<path fill-rule="evenodd" clip-rule="evenodd" d="M79.58 17.686C62.595 -4.18405 20.13 -7.38205 3.67 25.16C-12.788 57.702 30.737 94.5059 58.872 84.3679C87.007 74.2309 96.565 39.556 79.58 17.686Z" fill="#EAEEF2"/>
<path fill-rule="evenodd" clip-rule="evenodd" d="M25 28.5H21C20.586 28.5 20.21 28.668 19.94 28.94C19.668 29.21 19.5 29.586 19.5 30V92.5H26.5V30C26.5 29.586 26.332 29.21 26.06 28.94C25.921 28.8005 25.7558 28.6897 25.5739 28.6142C25.392 28.5387 25.197 28.4999 25 28.5Z" fill="#D6DBE4" stroke="#BBC4D3"/>
<path fill-rule="evenodd" clip-rule="evenodd" d="M22 87H24C24.5304 87 25.0391 87.2107 25.4142 87.5858C25.7893 87.9609 26 88.4696 26 89V93H20V89C20 88.4696 20.2107 87.9609 20.5858 87.5858C20.9609 87.2107 21.4696 87 22 87Z" fill="#D6DBE4"/>
<path fill-rule="evenodd" clip-rule="evenodd" d="M78.394 41.5H13C12.31 41.5 11.685 41.78 11.232 42.232C10.9995 42.4639 10.8152 42.7395 10.6895 43.0429C10.5639 43.3464 10.4995 43.6716 10.5 44V74C10.5 74.69 10.78 75.315 11.232 75.768C11.4639 76.0005 11.7395 76.1848 12.0429 76.3105C12.3464 76.4361 12.6716 76.5005 13 76.5H78.394C78.8055 76.5 79.2107 76.3984 79.5735 76.2043C79.9364 76.0101 80.2457 75.7294 80.474 75.387L90.474 60.387C90.7483 59.9764 90.8946 59.4938 90.8946 59C90.8946 58.5062 90.7483 58.0236 90.474 57.613L80.474 42.613C80.2457 42.2706 79.9364 41.9899 79.5735 41.7957C79.2107 41.6016 78.8055 41.5 78.394 41.5Z" fill="white" stroke="#BBC4D3"/>
<path d="M23 34.5C26.5899 34.5 29.5 31.5899 29.5 28C29.5 24.4101 26.5899 21.5 23 21.5C19.4101 21.5 16.5 24.4101 16.5 28C16.5 31.5899 19.4101 34.5 23 34.5Z" fill="#5C9FFF" stroke="#164798" stroke-linecap="round"/>
<path fill-rule="evenodd" clip-rule="evenodd" d="M64.5 50.5H59.5V56.5H53.5V61.5H59.5V67.5H64.5V61.5H70.5V56.5H64.5V50.5Z" fill="#5C9FFF" stroke="#164798" stroke-linecap="round"/>
<path d="M19 66.5H29M19 51.5H43H19ZM19 56.5H43H19ZM19 61.5H43H19Z" stroke="#BBC4D3"/>
</svg>
